<?xml version="1.0" encoding="utf-8"?>
<!-- Generator: Adobe Illustrator 25.4.1, SVG Export Plug-In . SVG Version: 6.00 Build 0)  -->
<svg version="1.1" id="Capa_1" xmlns="http://www.w3.org/2000/svg" xmlns:xlink="http://www.w3.org/1999/xlink" x="0px" y="0px"
	 viewBox="0 0 595.28 841.89" style="enable-background:new 0 0 595.28 841.89;" xml:space="preserve">
<style type="text/css">
	.st0{fill:#FEFEFE;}
	.st1{fill:#020202;}
	.st2{fill:#040404;}
	.st3{fill:#050505;}
	.st4{fill:#222222;}
	.st5{fill:#FAFAFA;}
	.st6{fill:#F3F3F3;}
	.st7{fill:#131313;}
	.st8{fill:#EAEAEA;}
</style>
<g>
	<g>
		<path class="st0" d="M-12,706.89c0-178.67,0-357.33,0-536c210.67,0,421.33,0,632,0c0,178.67,0,357.33,0,536
			C409.33,706.89,198.67,706.89-12,706.89z M407.11,353.93c-0.52-0.53-1.04-1.51-1.57-1.52c-8.83-0.1-17.66-0.07-26.7-0.07
			c0,1.2,0,2.12,0,3.05c0,8.99,0.01,17.98,0.01,26.98c-0.39,2.75,1.46,1.81,2.8,1.69c8.26-0.01,16.51-0.03,24.77-0.04
			c1.92,0.09,3.84,0.27,5.75,0.27c39.93,0.02,79.87,0.02,119.8,0.01c1.27,0,2.54-0.12,3.97-0.2c0-9.69-0.14-18.92,0.08-28.14
			c0.07-3.2-0.91-4.17-4.05-4.17c-31.32,0.08-62.63-0.03-93.95,0.11c-6.49,0.03-12.92,1.51-17.91,5.94
			c-5.77,5.11-9.69,11.56-11.41,19.21c-0.09,0.38-1,0.58-1.53,0.86C407.15,369.93,407.13,361.93,407.11,353.93z M406.99,468.25
			c0.82,0.16,1.15,0.29,1.49,0.29c33.4,0,66.8-0.04,100.21,0.01c6.91,0.01,12.09-3.64,16.95-7.77c2.24-1.9,4.14-4.47,5.49-7.09
			c6.53-12.61,6.92-25.76,1.04-38.5c-4.24-9.19-11.52-15.82-22.27-16.74c-13.48-1.15-27-1.95-40.51-2.72
			c-16-0.91-32-1.66-48.01-2.38c-4.18-0.19-8.38-0.03-12.54-0.03c1.97,13.5,13.99,24.59,26.21,26.09c11.49,1.4,23.05,2.21,34.6,3.07
			c11.74,0.87,23.51,1.38,35.24,2.34c1.53,0.12,3.63,1.66,4.23,3.08c2.2,5.12-0.31,8.61-5.84,8.61c-30.37,0.02-60.73,0.01-91.1,0.01
			c-1.53,0-3.06,0-4.93,0c0-14.83,0-29.22,0-43.84c-9.6-0.51-18.86-1-28.52-1.51c0,1.54,0,2.72,0,3.9c0,11.06,0.04,22.12-0.01,33.17
			c-0.03,6.03-3.15,9.51-8.56,9.53c-14.82,0.05-29.64,0.02-44.46,0.01c-3.45,0-6.21-1.22-7.27-4.73c-0.65-2.16-1.22-4.45-1.24-6.69
			c-0.12-11.66-0.06-23.33-0.06-35c0-1.29,0-2.57,0-4.13c-9.74-0.48-19.01-0.94-28.76-1.42c0,11.75,0,23.02,0,34.28
			c-1.39-1.52-2.07-3.17-2.92-4.72c-4.69-8.58-11.06-15.18-21.32-16.26c-13.08-1.37-26.19-2.54-39.32-3.47
			c-26.15-1.85-52.32-3.44-78.48-5.21c-4.27-0.29-8.52-0.95-13.06-1.47c0,26.59,0,52.99,0,79.59c1.6,0,3.04,0,4.48,0
			c39.96,0,79.92-0.03,119.89,0.04c6.27,0.01,11.99-0.9,17.32-4.74c6.16-4.43,10-10.23,12.52-17.16c0.38-1.04,0.64-2.11,1.1-3.63
			c1.52,3.7,2.5,6.97,4.13,9.87c4.74,8.46,11.32,15.2,21.52,15.4c22.46,0.44,44.94,0.27,67.41,0.09c7.13-0.06,12.76-3.84,17.05-9.33
			c2.91-3.72,5.3-7.86,8.3-12.36C406.99,454.22,406.99,461.25,406.99,468.25z M88.97,384.06c65.29,0,129.85,0,194.67,0
			c0-9.71-0.14-19.17,0.08-28.62c0.07-3.09-1.14-3.62-3.81-3.62c-29.27,0.06-58.54-0.02-87.81,0.07
			c-12.92,0.04-22.89,7.31-27.53,19.67c-0.35,0.94-0.86,1.83-1.29,2.75c-0.23-0.04-0.47-0.08-0.7-0.13c0-7.2,0-14.4,0-21.46
			c-0.64-0.21-0.87-0.35-1.11-0.35c-17.37-0.02-34.74-0.08-52.1,0.05c-1.11,0.01-2.62,1.14-3.26,2.17
			c-4.48,7.28-8.81,14.65-13.13,22.02C91.61,378.95,90.4,381.38,88.97,384.06z M120.35,388.21c-10.75-0.61-20.68-1.27-30.61-1.62
			c-1.29-0.05-2.92,1.22-3.89,2.32c-1.16,1.32-1.72,3.14-2.63,4.69c-4.15,7.06-8.37,14.07-12.5,21.15
			c-6.97,11.95-13.88,23.94-20.8,35.92c-3.34,5.78-6.65,11.59-10.26,17.9c11.7,0,22.71,0.04,33.72-0.07c0.84-0.01,2-0.85,2.46-1.63
			c3.8-6.43,7.49-12.91,11.16-19.41c8.11-14.35,16.19-28.71,24.28-43.07C114.22,399.16,117.14,393.93,120.35,388.21z M288.73,352.49
			c0,10.78,0,21.14,0,31.59c9.51,0,18.77,0,28.24,0c0-10.64,0-21.03,0-31.59C307.49,352.49,298.19,352.49,288.73,352.49z
			 M569.02,366.63c-0.08-8.01-5.3-13.65-12.55-13.53c-7.17,0.11-12.32,5.98-12.2,13.9c0.12,7.51,5.97,13.91,12.56,13.74
			C563.57,380.57,569.09,374.17,569.02,366.63z"/>
		<path class="st1" d="M406.99,468.25c0-7,0-14.03,0-21.5c-2.99,4.5-5.38,8.64-8.3,12.36c-4.29,5.48-9.92,9.27-17.05,9.33
			c-22.47,0.18-44.95,0.36-67.41-0.09c-10.2-0.2-16.78-6.94-21.52-15.4c-1.63-2.9-2.61-6.17-4.13-9.87
			c-0.45,1.52-0.72,2.59-1.1,3.63c-2.52,6.92-6.35,12.73-12.52,17.16c-5.34,3.84-11.06,4.75-17.32,4.74
			c-39.96-0.07-79.92-0.04-119.89-0.04c-1.44,0-2.88,0-4.48,0c0-26.59,0-52.99,0-79.59c4.54,0.52,8.79,1.18,13.06,1.47
			c26.16,1.77,52.33,3.37,78.48,5.21c13.12,0.93,26.23,2.1,39.32,3.47c10.26,1.08,16.63,7.68,21.32,16.26
			c0.85,1.55,1.53,3.2,2.92,4.72c0-11.27,0-22.54,0-34.28c9.74,0.48,19.02,0.94,28.76,1.42c0,1.56,0,2.84,0,4.13
			c0,11.67-0.06,23.33,0.06,35c0.02,2.24,0.59,4.52,1.24,6.69c1.06,3.51,3.82,4.73,7.27,4.73c14.82,0,29.64,0.03,44.46-0.01
			c5.41-0.02,8.53-3.5,8.56-9.53c0.05-11.06,0.01-22.12,0.01-33.17c0-1.18,0-2.36,0-3.9c9.66,0.51,18.92,1,28.52,1.51
			c0,14.62,0,29.01,0,43.84c1.87,0,3.4,0,4.93,0c30.37,0,60.73,0.01,91.1-0.01c5.53,0,8.04-3.5,5.84-8.61
			c-0.61-1.41-2.71-2.95-4.23-3.08c-11.73-0.96-23.5-1.47-35.24-2.34c-11.55-0.86-23.11-1.67-34.6-3.07
			c-12.21-1.49-24.24-12.58-26.21-26.09c4.16,0,8.36-0.16,12.54,0.03c16.01,0.72,32.01,1.47,48.01,2.38
			c13.51,0.77,27.03,1.57,40.51,2.72c10.75,0.91,18.03,7.55,22.27,16.74c5.87,12.74,5.49,25.89-1.04,38.5
			c-1.36,2.62-3.26,5.19-5.49,7.09c-4.86,4.13-10.04,7.78-16.95,7.77c-33.4-0.05-66.8-0.01-100.21-0.01
			C408.15,468.54,407.81,468.41,406.99,468.25z M162.75,396.73c0,13.36,0,26.46,0,39.65c0.65,0.06,1.12,0.15,1.59,0.15
			c30.61,0.01,61.22,0.01,91.82,0.01c0.73,0,1.45-0.05,2.18-0.09c3.65-0.23,4.49-2.85,4.64-5.78c0.19-3.66-1.54-5.71-4.87-5.96
			c-16.63-1.27-33.26-2.49-49.89-3.74c-5.93-0.44-11.88-0.71-17.79-1.37c-8.64-0.96-15.73-4.97-20.89-11.99
			C167.11,404.27,165.14,400.57,162.75,396.73z"/>
		<path class="st2" d="M88.97,384.06c1.44-2.68,2.64-5.11,4.01-7.44c4.32-7.37,8.65-14.75,13.13-22.02
			c0.64-1.03,2.15-2.16,3.26-2.17c17.37-0.12,34.74-0.07,52.1-0.05c0.23,0,0.46,0.14,1.11,0.35c0,7.06,0,14.26,0,21.46
			c0.23,0.04,0.47,0.08,0.7,0.13c0.43-0.92,0.94-1.8,1.29-2.75c4.64-12.36,14.61-19.64,27.53-19.67
			c29.27-0.08,58.54-0.01,87.81-0.07c2.67-0.01,3.88,0.53,3.81,3.62c-0.21,9.45-0.08,18.91-0.08,28.62
			C218.82,384.06,154.26,384.06,88.97,384.06z"/>
		<path class="st2" d="M407.17,377.93c0.53-0.28,1.44-0.48,1.53-0.86c1.72-7.66,5.64-14.1,11.41-19.21c5-4.43,11.42-5.92,17.91-5.94
			c31.32-0.14,62.63-0.03,93.95-0.11c3.15-0.01,4.13,0.97,4.05,4.17c-0.21,9.22-0.08,18.45-0.08,28.14c-1.43,0.07-2.7,0.2-3.97,0.2
			c-39.93,0.01-79.87,0.01-119.8-0.01c-1.92,0-3.84-0.17-5.75-0.27C406.67,381.99,406.92,379.96,407.17,377.93z"/>
		<path class="st1" d="M120.35,388.21c-3.21,5.72-6.14,10.96-9.08,16.18c-8.09,14.36-16.17,28.72-24.28,43.07
			c-3.67,6.5-7.37,12.99-11.16,19.41c-0.46,0.78-1.62,1.62-2.46,1.63c-11.01,0.11-22.02,0.07-33.72,0.07
			c3.62-6.32,6.92-12.12,10.26-17.9c6.92-11.98,13.84-23.96,20.8-35.92c4.12-7.07,8.35-14.09,12.5-21.15
			c0.91-1.55,1.47-3.38,2.63-4.69c0.97-1.1,2.6-2.37,3.89-2.32C99.68,386.94,109.6,387.6,120.35,388.21z"/>
		<path class="st3" d="M288.73,352.49c9.46,0,18.76,0,28.24,0c0,10.56,0,20.95,0,31.59c-9.46,0-18.73,0-28.24,0
			C288.73,373.63,288.73,363.27,288.73,352.49z"/>
		<path d="M407.17,377.93c-0.25,2.03-0.5,4.06-0.75,6.09c-8.26,0.01-16.51,0.03-24.77,0.04c-0.93-0.56-1.87-1.13-2.8-1.69
			c0-8.99-0.01-17.98-0.01-26.98c3.04-0.49,6.07-1.29,9.12-1.4c6.38-0.22,12.76-0.07,19.15-0.06
			C407.13,361.93,407.15,369.93,407.17,377.93z"/>
		<path class="st4" d="M569.02,366.63c0.07,7.54-5.46,13.94-12.18,14.11c-6.6,0.17-12.45-6.23-12.56-13.74
			c-0.12-7.92,5.02-13.78,12.2-13.9C563.72,352.99,568.95,358.62,569.02,366.63z M546.3,366.41c-0.13,6.69,4.31,12.14,10.01,12.28
			c5.98,0.15,10.71-5.09,10.76-11.92c0.05-6.66-4.56-11.95-10.4-11.95C550.92,354.83,546.42,359.86,546.3,366.41z"/>
		<path class="st2" d="M407.11,353.93c-6.38,0-12.77-0.15-19.15,0.06c-3.05,0.1-6.08,0.91-9.12,1.4c0-0.93,0-1.85,0-3.05
			c9.03,0,17.87-0.03,26.7,0.07C406.07,352.42,406.58,353.4,407.11,353.93z"/>
		<path class="st2" d="M378.85,382.37c0.93,0.56,1.87,1.13,2.8,1.69C380.31,384.18,378.47,385.12,378.85,382.37z"/>
		<path class="st5" d="M162.75,396.73c2.39,3.85,4.36,7.54,6.81,10.88c5.16,7.02,12.24,11.03,20.89,11.99
			c5.91,0.66,11.86,0.92,17.79,1.37c16.63,1.24,33.26,2.47,49.89,3.74c3.33,0.25,5.06,2.3,4.87,5.96c-0.15,2.92-0.99,5.55-4.64,5.78
			c-0.73,0.05-1.45,0.09-2.18,0.09c-30.61,0-61.22,0-91.82-0.01c-0.47,0-0.94-0.09-1.59-0.15
			C162.75,423.18,162.75,410.08,162.75,396.73z"/>
		<path class="st6" d="M546.3,366.41c0.12-6.56,4.62-11.58,10.37-11.59c5.84-0.01,10.44,5.29,10.4,11.95
			c-0.05,6.83-4.77,12.07-10.76,11.92C550.61,378.55,546.17,373.11,546.3,366.41z M551.85,359.74c0,5.04,0,9.81,0,14.57
			c0.35,0.02,0.7,0.04,1.05,0.06c0.19-2.11,0.39-4.21,0.58-6.25c5.43-1.43,3.85,6.29,8.67,6.24c-1.35-2.43-2.48-4.46-3.6-6.49
			c0.32,0.09,0.65,0.17,0.97,0.26c0.56-1.98,2.11-4.37,1.48-5.86C559.16,357.93,554.99,360.34,551.85,359.74z"/>
		<path class="st7" d="M551.85,359.74c3.14,0.6,7.32-1.81,9.14,2.53c0.62,1.48-0.93,3.88-1.48,5.86c-0.32-0.09-0.65-0.17-0.97-0.26
			c1.13,2.03,2.25,4.06,3.6,6.49c-4.82,0.06-3.24-7.67-8.67-6.24c-0.19,2.04-0.38,4.15-0.58,6.25c-0.35-0.02-0.7-0.04-1.05-0.06
			C551.85,369.55,551.85,364.78,551.85,359.74z M553.39,366.97c2.31-0.78,4.09-1.23,5.69-2.04c0.3-0.15,0.16-2.33-0.25-2.51
			c-1.61-0.71-3.4-1-5.44-1.53C553.39,363.13,553.39,364.53,553.39,366.97z"/>
		<path class="st8" d="M553.39,366.97c0-2.44,0-3.84,0-6.08c2.04,0.53,3.83,0.82,5.44,1.53c0.41,0.18,0.55,2.36,0.25,2.51
			C557.48,365.74,555.71,366.19,553.39,366.97z"/>
	</g>
</g>
</svg>
