<?xml version="1.0" encoding="utf-8"?>
<!-- Generator: Adobe Illustrator 25.4.1, SVG Export Plug-In . SVG Version: 6.00 Build 0)  -->
<svg version="1.1" id="Capa_1" xmlns="http://www.w3.org/2000/svg" xmlns:xlink="http://www.w3.org/1999/xlink" x="0px" y="0px"
	 viewBox="0 0 595.28 841.89" style="enable-background:new 0 0 595.28 841.89;" xml:space="preserve">
<style type="text/css">
	.st0{fill:#0068B4;}
	.st1{fill:#FEFEFE;}
	.st2{fill:#FDFEFE;}
	.st3{fill:#FCFDFE;}
	.st4{fill:#FBFCFD;}
	.st5{fill:#FDFDFE;}
	.st6{fill:#00C5FB;}
	.st7{fill:#EFF5FA;}
	.st8{fill:#0269B5;}
	.st9{fill:#0B6EB7;}
	.st10{fill:#F3F7FB;}
	.st11{fill:#0D6FB8;}
</style>
<g>
	<g>
		<path class="st0" d="M154.24,313.89c95.91,0,191.82,0,287.76,0c0,71.09,0,142.19,0,213.36c-95.9,0-191.83,0-287.76,0
			C154.24,456.13,154.24,385.01,154.24,313.89z M357.58,445.66c-4.58,4.67-10.01,7-16.41,6.9c-4.82-0.08-9.23-1.35-12.69-4.98
			c-1.98-2.09-3.27-4.55-3.97-7.47c16.3,0,32.47,0,48.69,0c0-2.53,0.08-4.96-0.02-7.39c-0.34-8.33-3.27-15.66-9.2-21.51
			c-8.58-8.46-19.08-10.7-30.55-8.06c-13.44,3.09-22.95,14.22-24.32,28.03c-0.95,9.63,1.65,18.23,8.21,25.43
			c5.52,6.05,12.55,9.23,20.64,10c9.18,0.88,17.74-0.96,25.28-6.48c2.17-1.59,4.09-3.51,6.25-5.38
			C365.36,451.58,361.49,448.63,357.58,445.66z M221.66,465.47c0-0.59,0-1.02,0-1.46c0-9.68-0.03-19.35,0.02-29.03
			c0.01-1.99,0.16-4,0.46-5.97c1.11-7.4,6.03-12.24,13.26-12.72c7.06-0.47,12.48,2.39,14.43,9.8c0.54,2.06,0.76,4.26,0.78,6.4
			c0.08,10.52,0.04,21.03,0.04,31.55c0,0.43,0,0.87,0,1.35c5.54,0,10.99,0,16.47,0c0.02-0.32,0.05-0.55,0.05-0.79
			c0-11.88,0.05-23.75-0.05-35.63c-0.02-2.62-0.36-5.28-0.92-7.84c-1.58-7.18-5.31-12.86-12.01-16.29c-4-2.05-8.31-2.73-12.76-2.74
			c-6.85-0.02-12.72,2.33-17.5,7.29c-0.76,0.79-1.44,1.66-2.34,2.71c0-3.04,0-5.84,0-8.66c-5.47,0-10.8,0-16.09,0
			c0,20.71,0,41.32,0,61.98c0.36,0.02,0.63,0.06,0.91,0.06C211.42,465.47,216.45,465.47,221.66,465.47z M304.29,450.99
			c-1.64-0.11-3.22-0.18-4.8-0.31c-3.95-0.33-5.97-1.99-6.59-5.41c-0.15-0.86-0.27-1.75-0.28-2.62c-0.06-8.16-0.1-16.31-0.13-24.47
			c0-0.23,0.05-0.46,0.09-0.84c3.92,0,7.81,0,11.7,0c0-4.73,0-9.31,0-14.05c-3.95,0-7.84,0-11.85,0c0-8.13,0-16.1,0-24.07
			c-5.51,0-10.88,0-16.34,0c0,0.35,0,0.62,0,0.89c0,20.16-0.04,40.31,0.05,60.47c0.01,3.3,0.39,6.63,0.94,9.89
			c1.03,6.11,4,10.98,10,13.34c2.39,0.94,4.97,1.53,7.52,1.86c3.18,0.42,6.42,0.41,9.7,0.59
			C304.29,460.99,304.29,456.01,304.29,450.99z M381.81,374.41c0,30.44,0,60.76,0,91.04c5.48,0,10.86,0,16.24,0
			c0-30.39,0-60.68,0-91.04C392.61,374.41,387.23,374.41,381.81,374.41z M179.5,403.39c0,20.68,0,41.3,0,61.98
			c5.43,0,10.83,0,16.26,0c0-20.7,0-41.32,0-61.98C190.32,403.39,184.94,403.39,179.5,403.39z M196.24,384.15
			c0-2.44-0.03-4.88,0.02-7.31c0.02-0.9-0.22-1.27-1.2-1.27c-4.95,0.04-9.9,0.04-14.85,0c-0.95-0.01-1.24,0.3-1.23,1.24
			c0.04,4.96,0.03,9.91,0,14.87c0,0.85,0.22,1.21,1.14,1.2c4.99-0.04,9.98-0.03,14.97,0c0.89,0.01,1.19-0.28,1.17-1.17
			C196.21,389.19,196.24,386.67,196.24,384.15z M411.18,453.99c-3.29,0.01-6.02,2.8-5.97,6.08c0.05,3.24,2.78,5.94,6.01,5.96
			c3.24,0.01,6.06-2.81,6.05-6.05C417.25,456.69,414.49,453.98,411.18,453.99z"/>
		<path class="st1" d="M154.24,313.89c0,71.12,0,142.24,0,213.36c-0.08-0.04-0.23-0.08-0.23-0.12c-0.02-0.32-0.01-0.64-0.01-0.96
			c0-70.4,0-140.8,0.01-211.2C154.01,314.61,154.16,314.25,154.24,313.89z"/>
		<path class="st2" d="M357.58,445.66c3.91,2.97,7.78,5.92,11.92,9.07c-2.16,1.87-4.08,3.8-6.25,5.38
			c-7.54,5.52-16.1,7.36-25.28,6.48c-8.09-0.77-15.12-3.95-20.64-10c-6.56-7.2-9.16-15.81-8.21-25.43
			c1.36-13.8,10.88-24.94,24.32-28.03c11.47-2.64,21.97-0.4,30.55,8.06c5.93,5.85,8.86,13.19,9.2,21.51
			c0.1,2.43,0.02,4.86,0.02,7.39c-16.22,0-32.39,0-48.69,0c0.7,2.92,1.99,5.39,3.97,7.47c3.45,3.63,7.86,4.91,12.69,4.98
			C347.56,452.66,353,450.33,357.58,445.66z M324.57,428.53c11.01,0,21.93,0,32.85,0c0.09-1.89-0.74-4.08-2.28-6.09
			c-6.52-8.5-21.59-8.52-28.11-0.04C325.66,424.18,324.73,426.13,324.57,428.53z"/>
		<path class="st3" d="M221.66,465.47c-5.21,0-10.24,0-15.27,0c-0.27,0-0.55-0.04-0.91-0.06c0-20.66,0-41.27,0-61.98
			c5.3,0,10.62,0,16.09,0c0,2.82,0,5.62,0,8.66c0.9-1.04,1.58-1.92,2.34-2.71c4.78-4.96,10.66-7.31,17.5-7.29
			c4.44,0.02,8.75,0.7,12.76,2.74c6.7,3.43,10.44,9.11,12.01,16.29c0.56,2.56,0.9,5.22,0.92,7.84c0.1,11.88,0.05,23.75,0.05,35.63
			c0,0.24-0.03,0.47-0.05,0.79c-5.48,0-10.93,0-16.47,0c0-0.49,0-0.92,0-1.35c0-10.52,0.04-21.03-0.04-31.55
			c-0.02-2.14-0.24-4.34-0.78-6.4c-1.95-7.4-7.37-10.27-14.43-9.8c-7.23,0.48-12.15,5.33-13.26,12.72c-0.3,1.97-0.45,3.98-0.46,5.97
			c-0.05,9.68-0.02,19.35-0.02,29.03C221.66,464.44,221.66,464.88,221.66,465.47z"/>
		<path class="st2" d="M304.29,450.99c0,5.02,0,10,0,15.25c-3.28-0.18-6.51-0.17-9.7-0.59c-2.55-0.33-5.13-0.92-7.52-1.86
			c-6-2.35-8.97-7.23-10-13.34c-0.55-3.26-0.92-6.59-0.94-9.89c-0.09-20.16-0.05-40.31-0.05-60.47c0-0.27,0-0.54,0-0.89
			c5.46,0,10.83,0,16.34,0c0,7.97,0,15.94,0,24.07c4.02,0,7.9,0,11.85,0c0,4.74,0,9.32,0,14.05c-3.89,0-7.78,0-11.7,0
			c-0.04,0.37-0.1,0.6-0.09,0.84c0.04,8.16,0.07,16.31,0.13,24.47c0.01,0.87,0.12,1.76,0.28,2.62c0.62,3.43,2.64,5.09,6.59,5.41
			C301.07,450.81,302.65,450.89,304.29,450.99z"/>
		<path class="st4" d="M381.81,374.41c5.42,0,10.8,0,16.24,0c0,30.35,0,60.65,0,91.04c-5.38,0-10.75,0-16.24,0
			C381.81,435.16,381.81,404.84,381.81,374.41z"/>
		<path class="st5" d="M179.5,403.39c5.44,0,10.82,0,16.26,0c0,20.66,0,41.28,0,61.98c-5.43,0-10.84,0-16.26,0
			C179.5,444.69,179.5,424.07,179.5,403.39z"/>
		<path class="st6" d="M196.24,384.15c0,2.52-0.03,5.04,0.02,7.55c0.02,0.89-0.28,1.18-1.17,1.17c-4.99-0.03-9.98-0.04-14.97,0
			c-0.92,0.01-1.14-0.35-1.14-1.2c0.03-4.96,0.03-9.91,0-14.87c-0.01-0.94,0.28-1.24,1.23-1.24c4.95,0.04,9.9,0.04,14.85,0
			c0.98-0.01,1.22,0.37,1.2,1.27C196.21,379.28,196.24,381.71,196.24,384.15z"/>
		<path class="st7" d="M411.18,453.99c3.31-0.01,6.07,2.7,6.08,5.98c0.01,3.25-2.81,6.07-6.05,6.05c-3.23-0.01-5.95-2.72-6.01-5.96
			C405.15,456.79,407.88,454.01,411.18,453.99z M406.22,459.89c-0.05,2.91,2,5.03,4.9,5.05c2.84,0.02,4.96-2.04,4.99-4.86
			c0.03-2.85-1.99-4.99-4.8-5.06C408.43,454.94,406.27,457.01,406.22,459.89z"/>
		<path class="st8" d="M324.57,428.53c0.16-2.39,1.09-4.35,2.45-6.12c6.53-8.48,21.59-8.46,28.11,0.04
			c1.54,2.01,2.37,4.19,2.28,6.09C346.5,428.53,335.58,428.53,324.57,428.53z"/>
		<path class="st9" d="M406.22,459.89c0.05-2.88,2.21-4.95,5.1-4.87c2.81,0.08,4.83,2.22,4.8,5.06c-0.03,2.81-2.15,4.88-4.99,4.86
			C408.23,464.92,406.17,462.8,406.22,459.89z M410.18,463.41c0-0.93,0-1.82,0-3.1c0.61,0.48,0.97,0.67,1.2,0.96
			c0.34,0.43,0.64,0.92,0.88,1.42c0.36,0.74,0.87,0.97,1.73,0.63c-0.53-0.9-1.05-1.77-1.6-2.71c1.14-0.42,1.85-1.17,1.52-2.3
			c-0.18-0.62-0.79-1.42-1.35-1.56c-1.15-0.29-2.41-0.19-3.64-0.26c0,2.44,0,4.66,0,6.91C409.34,463.41,409.68,463.41,410.18,463.41
			z"/>
		<path class="st10" d="M410.18,463.41c-0.5,0-0.84,0-1.26,0c0-2.25,0-4.46,0-6.91c1.23,0.06,2.48-0.03,3.64,0.26
			c0.56,0.14,1.17,0.94,1.35,1.56c0.33,1.13-0.39,1.88-1.52,2.3c0.55,0.93,1.07,1.81,1.6,2.71c-0.86,0.33-1.38,0.11-1.73-0.63
			c-0.24-0.5-0.53-0.99-0.88-1.42c-0.23-0.29-0.59-0.48-1.2-0.96C410.18,461.59,410.18,462.48,410.18,463.41z M410.18,459.75
			c0.91-0.27,1.65-0.44,2.34-0.75c0.14-0.06,0.15-0.89,0.03-0.94c-0.72-0.3-1.48-0.48-2.37-0.74
			C410.18,458.22,410.18,458.8,410.18,459.75z"/>
		<path class="st11" d="M410.18,459.75c0-0.95,0-1.53,0-2.42c0.89,0.26,1.65,0.44,2.37,0.74c0.11,0.05,0.1,0.88-0.03,0.94
			C411.84,459.31,411.09,459.48,410.18,459.75z"/>
	</g>
</g>
</svg>
