<?xml version="1.0" encoding="utf-8"?>
<!-- Generator: Adobe Illustrator 25.4.1, SVG Export Plug-In . SVG Version: 6.00 Build 0)  -->
<svg version="1.1" id="Capa_1" xmlns="http://www.w3.org/2000/svg" xmlns:xlink="http://www.w3.org/1999/xlink" x="0px" y="0px"
	 viewBox="0 0 595.28 841.89" style="enable-background:new 0 0 595.28 841.89;" xml:space="preserve">
<style type="text/css">
	.st0{fill:#FFFFFF;}
	.st1{fill:#131212;}
	.st2{fill:#FEFEFE;}
	.st3{fill:#131313;}
	.st4{fill:#10100F;}
	.st5{fill:#FCFCFC;}
</style>
<g>
	<g>
		<path class="st0" d="M-113.79,714.92c0-195.98,0-391.96,0-587.94c274.29,0,548.57,0,822.86,0c0,195.98,0,391.96,0,587.94
			C434.78,714.92,160.49,714.92-113.79,714.92z M295.88,195.6c-5.04,0.26-12.54,0.42-19.99,1.06c-20.71,1.77-41.11,5.35-61.11,11.13
			c-16.06,4.64-31.68,10.49-46.46,18.27c-9.27,4.88-18.14,10.51-27.05,16.05c-11.44,7.1-21.72,15.75-31.49,24.94
			c-6.72,6.33-13.35,12.88-19.13,20.05c-7.33,9.08-14.01,18.71-20.47,28.43c-3.72,5.6-6.8,11.7-9.55,17.85
			c-3.57,7.96-7.04,16.04-9.61,24.36c-2.83,9.15-5.19,18.53-6.66,27.98c-2.01,12.93-4.5,25.88-3.9,39.07
			c0.23,4.9,1.05,9.77,1.61,14.66c1.22,10.62,2.04,21.3,5.46,31.55c1.8,5.4,2.99,11.02,5.01,16.33c2.99,7.87,6.2,15.68,9.81,23.28
			c2.98,6.27,6.45,12.34,10.11,18.25c3.83,6.18,8.1,12.1,12.29,18.05c1.81,2.57,3.76,5.08,5.91,7.37
			c5.57,5.94,11.19,11.83,16.96,17.57c3.98,3.97,7.98,8.01,12.42,11.43c8.91,6.85,17.87,13.69,27.29,19.8
			c8.7,5.64,17.79,10.79,27.13,15.29c15.13,7.3,30.96,12.87,47.25,17.1c21.02,5.47,42.4,8.74,64.06,9.85
			c20.81,1.07,41.5-0.66,62.05-4.12c22.66-3.81,44.56-10.2,65.59-19.45c13.71-6.03,26.8-13.29,39.23-21.63
			c12.03-8.08,23.91-16.51,34.08-26.89c8.86-9.04,17.27-18.58,25.3-28.37c5.33-6.5,9.99-13.63,14.34-20.85
			c4-6.63,7.52-13.61,10.67-20.69c3.34-7.52,6.37-15.22,8.84-23.06c2.33-7.43,4.18-15.07,5.49-22.74
			c4.43-25.93,4.77-51.8-1.12-77.66c-2.72-11.95-5.49-23.82-10.58-35.01c-3.13-6.87-6.38-13.68-9.61-20.5
			c-4.05-8.57-9.2-16.47-15.05-23.9c-4.98-6.33-9.75-12.88-15.29-18.69c-7.8-8.18-15.9-16.13-24.47-23.48
			c-7.85-6.73-16.21-12.96-24.85-18.63c-8.83-5.8-18.06-11.1-27.52-15.82c-15.04-7.49-30.84-13.1-47.1-17.43
			C350.38,199.64,324.58,196.05,295.88,195.6z"/>
		<path class="st1" d="M295.88,195.6c28.71,0.45,54.5,4.04,79.88,10.8c16.26,4.33,32.07,9.94,47.1,17.43
			c9.46,4.71,18.69,10.02,27.52,15.82c8.64,5.67,17.01,11.9,24.85,18.63c8.57,7.35,16.67,15.31,24.47,23.48
			c5.54,5.81,10.32,12.36,15.29,18.69c5.85,7.43,11,15.33,15.05,23.9c3.23,6.82,6.48,13.63,9.61,20.5
			c5.09,11.19,7.86,23.06,10.58,35.01c5.89,25.86,5.55,51.73,1.12,77.66c-1.31,7.67-3.16,15.31-5.49,22.74
			c-2.46,7.84-5.5,15.54-8.84,23.06c-3.15,7.08-6.67,14.06-10.67,20.69c-4.35,7.21-9.01,14.34-14.34,20.85
			c-8.03,9.79-16.44,19.33-25.3,28.37c-10.17,10.38-22.05,18.81-34.08,26.89c-12.42,8.34-25.52,15.59-39.23,21.63
			c-21.03,9.25-42.93,15.64-65.59,19.45c-20.55,3.46-41.24,5.19-62.05,4.12c-21.66-1.12-43.04-4.39-64.06-9.85
			c-16.29-4.23-32.12-9.81-47.25-17.1c-9.34-4.5-18.43-9.65-27.13-15.29c-9.42-6.1-18.38-12.94-27.29-19.8
			c-4.44-3.42-8.44-7.46-12.42-11.43c-5.76-5.75-11.39-11.63-16.96-17.57c-2.15-2.29-4.1-4.8-5.91-7.37
			c-4.19-5.95-8.46-11.87-12.29-18.05c-3.66-5.91-7.13-11.98-10.11-18.25c-3.61-7.6-6.82-15.41-9.81-23.28
			c-2.02-5.31-3.21-10.93-5.01-16.33c-3.42-10.25-4.24-20.93-5.46-31.55c-0.56-4.88-1.38-9.76-1.61-14.66
			c-0.61-13.19,1.89-26.15,3.9-39.07c1.47-9.45,3.83-18.83,6.66-27.98c2.57-8.32,6.04-16.39,9.61-24.36
			c2.75-6.15,5.83-12.25,9.55-17.85c6.46-9.72,13.14-19.36,20.47-28.43c5.78-7.17,12.41-13.72,19.13-20.05
			c9.77-9.19,20.06-17.83,31.49-24.94c8.9-5.53,17.78-11.17,27.05-16.05c14.78-7.78,30.4-13.62,46.46-18.27
			c20-5.78,40.39-9.36,61.11-11.13C283.34,196.02,290.83,195.86,295.88,195.6z M298.54,221.26c-8.67,0.5-17.36,0.87-26.02,1.54
			c-22.22,1.73-43.73,6.79-64.56,14.62c-12.94,4.86-25.3,10.99-37.29,17.9c-14.8,8.53-28.49,18.54-40.79,30.31
			c-7.02,6.72-13.55,14.05-19.58,21.68c-5.54,6.99-10.39,14.59-15.05,22.21c-3.74,6.11-7.21,12.48-9.99,19.08
			c-3.68,8.71-6.98,17.63-9.68,26.69c-2.12,7.1-3.63,14.48-4.46,21.84c-1.79,15.86-2.37,31.78,0.88,47.59
			c1.76,8.53,3.3,17.11,5.31,25.58c1.13,4.77,2.72,9.49,4.65,13.99c3.58,8.33,6.95,16.84,11.54,24.61
			c5.54,9.37,12.05,18.19,18.52,26.97c3.85,5.23,8.01,10.38,12.77,14.77c8.83,8.13,17.84,16.17,27.47,23.32
			c8.56,6.36,17.78,11.96,27.18,17.04c14.97,8.08,30.73,14.4,47.11,19.15c15.38,4.46,31.03,7.44,46.97,8.88
			c24.94,2.25,49.7,0.67,74.29-3.83c18.29-3.35,36.04-8.52,52.83-16.6c8.75-4.21,17.46-8.6,25.75-13.64
			c9.19-5.59,18.14-11.65,26.67-18.19c6.86-5.26,13.2-11.28,19.3-17.43c9.53-9.61,17.72-20.38,24.94-31.81
			c3.35-5.31,6.54-10.79,9.16-16.48c3.79-8.23,7.17-16.67,10.39-25.15c1.85-4.89,3.59-9.95,4.39-15.08
			c1.9-12.19,3.36-24.46,4.67-36.73c0.36-3.39-0.5-6.89-0.72-10.35c-0.85-13.3-1.91-26.57-5.92-39.4
			c-1.32-4.23-2.66-8.45-3.95-12.69c-2.67-8.81-6.2-17.27-10.84-25.22c-3.97-6.81-8.07-13.55-12.26-20.23
			c-1.67-2.67-3.53-5.26-5.62-7.61c-5.41-6.09-10.81-12.21-16.55-17.99c-5.56-5.6-11.28-11.08-17.37-16.08
			c-10.02-8.22-20.74-15.47-32.07-21.84c-11.82-6.64-24.09-12.22-36.86-16.7C356.17,226.31,327.78,221.44,298.54,221.26z"/>
		<path class="st2" d="M298.54,221.26c29.24,0.18,57.63,5.05,85.19,14.71c12.77,4.47,25.05,10.05,36.86,16.7
			c11.33,6.37,22.05,13.62,32.07,21.84c6.09,5,11.81,10.49,17.37,16.08c5.74,5.78,11.14,11.89,16.55,17.99
			c2.09,2.35,3.95,4.94,5.62,7.61c4.18,6.68,8.28,13.42,12.26,20.23c4.64,7.95,8.17,16.41,10.84,25.22
			c1.29,4.24,2.63,8.46,3.95,12.69c4.01,12.83,5.07,26.1,5.92,39.4c0.22,3.46,1.08,6.96,0.72,10.35
			c-1.3,12.27-2.76,24.54-4.67,36.73c-0.8,5.14-2.54,10.19-4.39,15.08c-3.21,8.48-6.6,16.91-10.39,25.15
			c-2.62,5.7-5.81,11.17-9.16,16.48c-7.23,11.44-15.41,22.2-24.94,31.81c-6.1,6.15-12.44,12.17-19.3,17.43
			c-8.53,6.54-17.48,12.6-26.67,18.19c-8.28,5.04-17,9.42-25.75,13.64c-16.78,8.08-34.54,13.25-52.83,16.6
			c-24.59,4.5-49.35,6.08-74.29,3.83c-15.94-1.44-31.58-4.42-46.97-8.88c-16.38-4.75-32.15-11.07-47.11-19.15
			c-9.4-5.07-18.62-10.67-27.18-17.04c-9.62-7.16-18.63-15.19-27.47-23.32c-4.76-4.38-8.91-9.54-12.77-14.77
			c-6.47-8.78-12.99-17.6-18.52-26.97c-4.59-7.77-7.96-16.29-11.54-24.61c-1.94-4.5-3.52-9.22-4.65-13.99
			c-2.01-8.47-3.55-17.05-5.31-25.58c-3.25-15.81-2.67-31.73-0.88-47.59c0.83-7.36,2.34-14.74,4.46-21.84
			c2.7-9.06,6-17.98,9.68-26.69c2.79-6.59,6.25-12.96,9.99-19.08c4.67-7.62,9.51-15.22,15.05-22.21
			c6.04-7.62,12.56-14.96,19.58-21.68c12.3-11.77,25.99-21.78,40.79-30.31c12-6.91,24.35-13.04,37.29-17.9
			c20.83-7.83,42.34-12.89,64.56-14.62C281.18,222.13,289.86,221.76,298.54,221.26z M329.89,394.73
			c-7.26-4.25-14.12-8.36-21.12-12.24c-0.92-0.51-2.67-0.22-3.72,0.32c-3.71,1.9-7.26,4.09-10.9,6.12
			c-12.48,6.93-24.97,13.85-37.48,20.72c-0.75,0.41-1.96,0.66-2.66,0.33c-2.38-1.11-4.63-2.51-7.34-4.03
			c17.39-9.84,34.33-19.43,51.9-29.38c-8.26-4.89-15.91-9.45-23.63-13.89c-0.57-0.33-1.76,0.03-2.48,0.42
			c-4.88,2.66-9.71,5.4-14.55,8.14c-13.97,7.93-27.93,15.88-41.91,23.79c-2.63,1.49-5.35,2.82-7.82,4.12
			c-1.84-3.21-3.49-6.1-5.15-8.99c-3.17-5.53-7.71-9.85-12.84-13.38c-8.76-6.03-18.77-8.8-29.31-8.93
			c-17.08-0.21-34.16,0.03-51.24,0.1c-0.16,0-0.33,0.18-0.5,0.29c0,31.2,0,62.39,0,93.84c8.32,0,16.41,0.14,24.5-0.03
			c12.07-0.25,24.24,0.2,36.16-1.32c14.47-1.85,26.28-9.17,33.91-22.14c1.78-3.02,3.41-6.14,5.23-9.45c3.84,2.2,7.9,4.45,11.89,6.82
			c15.59,9.28,31.08,18.74,46.79,27.79c3.13,1.81,5.78,5.6,11.03,2.19c10.36-6.74,21.43-12.38,32.22-18.46
			c7.18-4.04,14.35-8.09,21.56-12.08c2.25-1.25,4.62-2.3,7.34-3.64c0,10.4,0,20.15,0,29.96c24.41,0,48.62,0,72.77,0
			c0-10.03,0-19.77,0-30c-11.42,0-22.65,0-34.12,0c0-21.52,0-42.55,0-63.67c-13.06,0-25.86,0-38.81,0c0,10.02,0.03,19.8-0.04,29.58
			c-0.01,0.96-0.33,2.28-1,2.81c-1.45,1.15-3.22,1.91-4.87,2.82c-11.01,6.1-22.01,12.22-33.03,18.3c-4.16,2.29-8.36,4.53-12.58,6.7
			c-0.67,0.34-1.74,0.49-2.38,0.19c-2.45-1.15-4.8-2.52-7.43-3.94C295.52,414.56,312.43,404.81,329.89,394.73z M460.54,431.84
			c0-21.56,0-42.69,0-63.79c-12.88,0-25.5,0-38.01,0c0,31.44,0,62.63,0,93.84c24.1,0,47.95,0,71.88,0c0-10.03,0-19.93,0-30.05
			C483.09,431.84,472.03,431.84,460.54,431.84z"/>
		<path class="st3" d="M329.89,394.73c-17.47,10.08-34.37,19.83-51.59,29.77c2.63,1.42,4.98,2.79,7.43,3.94
			c0.63,0.3,1.71,0.15,2.38-0.19c4.23-2.17,8.42-4.4,12.58-6.7c11.02-6.08,22.02-12.2,33.03-18.3c1.64-0.91,3.42-1.67,4.87-2.82
			c0.67-0.53,0.99-1.85,1-2.81c0.07-9.78,0.04-19.56,0.04-29.58c12.94,0,25.75,0,38.81,0c0,21.12,0,42.15,0,63.67
			c11.47,0,22.7,0,34.12,0c0,10.23,0,19.97,0,30c-24.15,0-48.36,0-72.77,0c0-9.81,0-19.56,0-29.96c-2.72,1.34-5.08,2.39-7.34,3.64
			c-7.21,3.99-14.38,8.03-21.56,12.08c-10.79,6.08-21.86,11.72-32.22,18.46c-5.25,3.41-7.89-0.38-11.03-2.19
			c-15.72-9.06-31.2-18.51-46.79-27.79c-3.99-2.37-8.05-4.62-11.89-6.82c-1.83,3.31-3.45,6.42-5.23,9.45
			c-7.64,12.97-19.44,20.29-33.91,22.14c-11.92,1.52-24.09,1.07-36.16,1.32c-8.08,0.17-16.18,0.03-24.5,0.03
			c0-31.44,0-62.64,0-93.84c0.18-0.11,0.34-0.29,0.5-0.29c17.08-0.07,34.16-0.31,51.24-0.1c10.54,0.13,20.56,2.9,29.31,8.93
			c5.12,3.53,9.67,7.86,12.84,13.38c1.65,2.89,3.31,5.78,5.15,8.99c2.47-1.3,5.19-2.63,7.82-4.12
			c13.98-7.91,27.94-15.86,41.91-23.79c4.83-2.74,9.67-5.48,14.55-8.14c0.71-0.39,1.91-0.75,2.48-0.42
			c7.72,4.44,15.37,9.01,23.63,13.89c-17.57,9.95-34.51,19.54-51.9,29.38c2.71,1.52,4.96,2.92,7.34,4.03
			c0.7,0.32,1.91,0.08,2.66-0.33c12.52-6.86,25-13.78,37.48-20.72c3.64-2.02,7.19-4.22,10.9-6.12c1.05-0.54,2.8-0.83,3.72-0.32
			C315.77,386.37,322.63,390.48,329.89,394.73z M146,397.54c0,11.56,0,22.79,0,34.04c4.2,0,8.29,0.32,12.31-0.06
			c10.51-0.99,16.23-7.8,15.66-18.25c-0.34-6.12-2.89-11.01-8.63-13.54C159.26,397.05,152.76,397.1,146,397.54z"/>
		<path class="st4" d="M460.54,431.84c11.49,0,22.55,0,33.86,0c0,10.12,0,20.02,0,30.05c-23.93,0-47.78,0-71.88,0
			c0-31.21,0-62.4,0-93.84c12.51,0,25.14,0,38.01,0C460.54,389.15,460.54,410.28,460.54,431.84z"/>
		<path class="st5" d="M146,397.54c6.76-0.44,13.26-0.49,19.33,2.19c5.74,2.53,8.3,7.42,8.63,13.54
			c0.58,10.45-5.15,17.25-15.66,18.25c-4.02,0.38-8.11,0.06-12.31,0.06C146,420.33,146,409.1,146,397.54z"/>
	</g>
</g>
</svg>
