<?xml version="1.0" encoding="utf-8"?>
<!-- Generator: Adobe Illustrator 25.4.1, SVG Export Plug-In . SVG Version: 6.00 Build 0)  -->
<svg version="1.1" id="Capa_1" xmlns="http://www.w3.org/2000/svg" xmlns:xlink="http://www.w3.org/1999/xlink" x="0px" y="0px"
	 viewBox="0 0 595.28 841.89" style="enable-background:new 0 0 595.28 841.89;" xml:space="preserve">
<style type="text/css">
	.st0{fill:#FFFFFF;}
	.st1{fill:#0D0D0D;}
	.st2{fill:#101010;}
</style>
<g>
	<g>
		<path class="st0" d="M686,734.89c-267.67,0-535.33,0-803,0c0-202.67,0-405.33,0-608c267.67,0,535.33,0,803,0
			C686,329.56,686,532.22,686,734.89z M232.63,211.67c-0.21-0.25-0.43-0.5-0.64-0.75c-8.18,2.66-16.55,4.85-24.48,8.11
			c-11.38,4.67-22.72,9.61-33.58,15.36c-16.47,8.72-31.5,19.71-45.44,32.07c-5.96,5.28-11.7,10.89-16.98,16.84
			c-6.51,7.34-12.94,14.85-18.47,22.93c-6.38,9.32-12.08,19.17-17.45,29.12c-3.67,6.8-6.72,14.03-9.26,21.34
			c-3.26,9.37-6.13,18.92-8.45,28.56c-3.49,14.49-4.82,29.33-4.83,44.21c-0.01,18.86,1.31,37.62,7,55.79
			c2.59,8.28,5.21,16.55,8.09,24.73c4.56,12.96,10.95,25.02,18.32,36.62c5.44,8.56,11.03,16.96,17.86,24.48
			c5.99,6.58,11.98,13.16,18.16,19.56c8.22,8.51,17.54,15.72,27.14,22.62c11.38,8.17,23.42,15.16,35.98,21.35
			c13.33,6.56,27.2,11.64,41.41,15.87c4.88,1.45,9.9,2.46,14.69,3.64c2.2-5.07,4.32-9.69,6.22-14.4c3.17-7.87,6.19-15.8,9.27-23.71
			c2.86-7.33,5.71-14.66,8.58-21.98c3.02-7.71,6.07-15.42,9.09-23.13c2.98-7.6,5.93-15.22,8.92-22.82c2.99-7.6,6.01-15.19,9-22.8
			c3.07-7.81,6.11-15.64,9.16-23.46c2.97-7.61,5.95-15.21,8.91-22.82c3-7.72,5.98-15.45,8.99-23.16c2.94-7.51,5.93-15,8.88-22.51
			c3.07-7.81,6.12-15.62,9.17-23.44c2.97-7.62,5.94-15.25,8.9-22.87c2.96-7.61,5.93-15.22,8.89-22.83
			c3.89-10.02,7.85-20.02,11.57-30.1c0.82-2.23,1.81-2.9,4.14-2.9c26.15,0.09,52.29,0.04,78.44,0.06c6.41,0,12.85-0.32,19.21,0.25
			c11.47,1.03,21.5,4.93,26.85,16.24c2.71,5.73,3.37,11.96,1.73,17.84c-2.35,8.42-5.73,16.56-8.82,24.77
			c-2.98,7.93-6.13,15.8-9.21,23.7c-3.05,7.82-6.11,15.63-9.18,23.44c-2.87,7.32-5.78,14.63-8.64,21.96
			c-3.13,8-6.21,16.01-9.33,24.02c-2.96,7.62-5.91,15.24-8.92,22.84c-2.25,5.68-4,11.43-8.99,15.81
			c-7.35,6.46-15.52,9.84-25.25,9.81c-16.95-0.04-33.9,0-50.84,0c-4.65,0-9.3-0.09-13.95,0.08c-0.95,0.03-2.36,0.79-2.72,1.58
			c-2.16,4.83-4.12,9.76-6.07,14.68c-3.05,7.7-6.02,15.43-9.05,23.13c-2.95,7.51-5.95,15-8.9,22.51c-3.1,7.9-6.16,15.81-9.23,23.72
			c-3.48,8.96-6.99,17.9-10.4,26.89c-1.96,5.16-3.75,10.39-5.93,16.47c12.03-0.68,23.37-0.98,34.64-2.04
			c21.43-2.02,42.21-6.98,62.47-14.34c16.88-6.13,32.94-13.93,48.03-23.56c9.24-5.9,18.29-12.27,26.59-19.41
			c9.51-8.19,18.46-17.14,26.96-26.39c6.4-6.97,12.29-14.58,17.37-22.56c6.62-10.39,12.63-21.24,18.11-32.27
			c3.77-7.58,6.82-15.64,9.09-23.8c3.35-12.03,6.62-24.21,8.32-36.55c2.77-20.12,3.09-40.33-0.82-60.53
			c-2.65-13.7-4.8-27.46-10.16-40.45c-2.72-6.58-5.3-13.22-8.35-19.64c-3.21-6.73-6.78-13.3-10.45-19.79
			c-2.3-4.06-4.86-8.02-7.68-11.73c-5.99-7.88-11.94-15.81-18.44-23.25c-5.44-6.24-11.29-12.22-17.59-17.59
			c-8.73-7.45-17.73-14.67-27.19-21.13c-8.79-6-18.22-11.12-27.61-16.2c-12.24-6.62-25.27-11.45-38.55-15.59
			c-16.98-5.29-34.33-8.93-52.04-10.33c-11.5-0.91-23.08-0.75-34.63-0.93c-0.89-0.01-2.25,0.91-2.62,1.75
			c-2,4.44-3.8,8.98-5.59,13.51c-3.19,8.08-6.32,16.18-9.48,24.27c-2.83,7.22-5.69,14.43-8.5,21.66
			c-3.42,8.77-6.85,17.53-10.19,26.33c-2.19,5.78-4.13,11.65-6.37,17.41c-3.03,7.78-6.23,15.49-9.49,23.57
			c12.5,0,24.38-0.06,36.26,0.03c4.95,0.04,9.92,0.13,14.83,0.63c8.52,0.86,15.86,4.59,21.31,11.11c4.86,5.82,6.53,13.11,4.95,20.42
			c-1.48,6.82-4.16,13.4-6.59,19.98c-2.87,7.77-6.06,15.41-9.08,23.12c-2.94,7.5-5.84,15.02-8.77,22.52
			c-3.02,7.71-6.08,15.41-9.1,23.12c-3.06,7.8-6.08,15.61-9.13,23.41c-2.91,7.42-5.89,14.82-8.75,22.25
			c-4.09,10.61-8.15,21.24-12.14,31.88c-0.64,1.7-1.51,2.3-3.38,2.27c-7.85-0.12-15.71-0.05-23.56-0.05c-8.67,0-17.33,0-26.79,0
			c1.67-3.73,3.25-6.97,4.59-10.3c3.26-8.16,6.41-16.36,9.61-24.54c2.75-7.03,5.51-14.06,8.27-21.09
			c3.17-8.08,6.35-16.16,9.52-24.25c2.9-7.41,5.81-14.81,8.7-22.22c3.05-7.81,6.08-15.62,9.13-23.43
			c3.12-7.99,6.33-15.96,9.37-23.98c2.55-6.71,4.92-13.49,7.49-20.58c-12.82,0-25.2-0.03-37.58,0.08c-0.64,0.01-1.54,1.11-1.87,1.9
			c-2.21,5.26-4.33,10.56-6.42,15.87c-3.21,8.17-6.38,16.36-9.56,24.54c-2.78,7.14-5.56,14.28-8.36,21.41
			c-2.99,7.6-6.02,15.18-9,22.78c-3.1,7.89-6.16,15.8-9.24,23.71c-2.86,7.33-5.75,14.64-8.56,21.99
			c-4.54,11.86-9.08,23.73-13.49,35.64c-0.74,1.99-1.73,2.56-3.81,2.54c-13.12-0.1-26.25-0.05-39.37-0.05c-3.29,0-6.57,0-10.14,0
			c0.24-0.97,0.33-1.67,0.58-2.3c1.77-4.42,3.61-8.82,5.37-13.25c3.2-8.08,6.35-16.17,9.52-24.26c2.83-7.23,5.65-14.46,8.48-21.68
			c2.95-7.51,5.93-15,8.87-22.51c3.12-7.99,6.2-16,9.31-23.99c2.81-7.22,5.66-14.43,8.48-21.65c3.17-8.09,6.32-16.19,9.49-24.28
			c2.87-7.32,5.75-14.63,8.62-21.95c2.94-7.51,5.88-15.01,8.82-22.52c3.02-7.7,6.05-15.4,9.05-23.12
			c3.34-8.58,6.62-17.18,9.96-25.76c2.63-6.75,5.31-13.47,7.96-20.21c2.95-7.5,5.97-14.98,8.83-22.53
			c2.52-6.64,4.75-13.39,7.29-20.03C229.33,218.55,231.07,215.15,232.63,211.67z M448.12,361.69c-12.7,0-24.88,0.03-37.06-0.03
			c-2.09-0.01-2.8,1.23-3.43,2.86c-3.01,7.82-6.06,15.62-9.11,23.42c-2.9,7.41-5.85,14.81-8.75,22.22
			c-3.04,7.79-6.03,15.61-9.08,23.4c-2.94,7.52-5.97,15-8.87,22.54c-4.56,11.85-9.05,23.73-13.58,35.6
			c-1.21,3.18-2.45,6.36-3.77,9.79c12.5,0,25.06,0.02,37.62-0.07c0.64,0,1.58-0.85,1.86-1.52c2.34-5.55,4.59-11.13,6.79-16.73
			c2.99-7.61,5.9-15.24,8.89-22.85c2.94-7.51,5.95-14.99,8.9-22.49c3.06-7.8,6.09-15.61,9.11-23.43
			c4.28-11.07,8.52-22.16,12.81-33.23C442.91,374.79,445.45,368.45,448.12,361.69z"/>
		<path class="st1" d="M232.63,211.67c-1.57,3.47-3.3,6.88-4.66,10.43c-2.54,6.64-4.78,13.39-7.29,20.03
			c-2.85,7.54-5.87,15.02-8.83,22.53c-2.65,6.74-5.33,13.46-7.96,20.21c-3.34,8.58-6.63,17.18-9.96,25.76
			c-3,7.71-6.03,15.41-9.05,23.12c-2.94,7.51-5.88,15.01-8.82,22.52c-2.87,7.32-5.75,14.63-8.62,21.95
			c-3.17,8.09-6.33,16.19-9.49,24.28c-2.82,7.22-5.67,14.43-8.48,21.65c-3.11,7.99-6.19,16-9.31,23.99
			c-2.94,7.51-5.92,15.01-8.87,22.51c-2.84,7.22-5.66,14.45-8.48,21.68c-3.17,8.09-6.32,16.19-9.52,24.26
			c-1.75,4.43-3.59,8.83-5.37,13.25c-0.25,0.63-0.34,1.33-0.58,2.3c3.56,0,6.85,0,10.14,0c13.12,0,26.25-0.05,39.37,0.05
			c2.08,0.02,3.07-0.55,3.81-2.54c4.41-11.91,8.95-23.78,13.49-35.64c2.81-7.35,5.71-14.66,8.56-21.99
			c3.08-7.9,6.14-15.81,9.24-23.71c2.98-7.6,6.01-15.18,9-22.78c2.8-7.13,5.58-14.27,8.36-21.41c3.19-8.18,6.35-16.37,9.56-24.54
			c2.09-5.31,4.21-10.61,6.42-15.87c0.33-0.78,1.23-1.89,1.87-1.9c12.38-0.11,24.76-0.08,37.58-0.08
			c-2.58,7.1-4.95,13.87-7.49,20.58c-3.05,8.02-6.25,15.99-9.37,23.98c-3.05,7.81-6.08,15.62-9.13,23.43
			c-2.89,7.41-5.8,14.82-8.7,22.22c-3.17,8.08-6.35,16.17-9.52,24.25c-2.76,7.03-5.52,14.06-8.27,21.09
			c-3.2,8.18-6.35,16.39-9.61,24.54c-1.34,3.34-2.92,6.58-4.59,10.3c9.46,0,18.12,0,26.79,0c7.85,0,15.71-0.07,23.56,0.05
			c1.87,0.03,2.74-0.57,3.38-2.27c3.99-10.65,8.05-21.27,12.14-31.88c2.87-7.44,5.85-14.83,8.75-22.25
			c3.06-7.8,6.08-15.61,9.13-23.41c3.02-7.71,6.08-15.41,9.1-23.12c2.94-7.5,5.83-15.02,8.77-22.52c3.02-7.71,6.21-15.36,9.08-23.12
			c2.43-6.58,5.12-13.16,6.59-19.98c1.58-7.31-0.08-14.6-4.95-20.42c-5.45-6.52-12.79-10.25-21.31-11.11
			c-4.92-0.5-9.88-0.59-14.83-0.63c-11.88-0.08-23.76-0.03-36.26-0.03c3.26-8.08,6.47-15.79,9.49-23.57
			c2.24-5.76,4.18-11.64,6.37-17.41c3.34-8.8,6.77-17.56,10.19-26.33c2.82-7.23,5.68-14.43,8.5-21.66
			c3.17-8.09,6.29-16.19,9.48-24.27c1.79-4.53,3.59-9.07,5.59-13.51c0.38-0.83,1.73-1.76,2.62-1.75
			c11.55,0.18,23.13,0.02,34.63,0.93c17.71,1.4,35.06,5.05,52.04,10.33c13.28,4.14,26.31,8.96,38.55,15.59
			c9.38,5.08,18.81,10.19,27.61,16.2c9.47,6.46,18.46,13.68,27.19,21.13c6.29,5.37,12.14,11.35,17.59,17.59
			c6.5,7.45,12.46,15.38,18.44,23.25c2.82,3.71,5.38,7.67,7.68,11.73c3.67,6.49,7.24,13.06,10.45,19.79
			c3.06,6.42,5.64,13.06,8.35,19.64c5.36,12.99,7.51,26.75,10.16,40.45c3.91,20.2,3.59,40.41,0.82,60.53
			c-1.7,12.34-4.97,24.52-8.32,36.55c-2.27,8.15-5.32,16.22-9.09,23.8c-5.49,11.04-11.49,21.88-18.11,32.27
			c-5.08,7.98-10.97,15.59-17.37,22.56c-8.5,9.25-17.45,18.2-26.96,26.39c-8.29,7.14-17.35,13.51-26.59,19.41
			c-15.09,9.63-31.14,17.43-48.03,23.56c-20.26,7.36-41.04,12.32-62.47,14.34c-11.27,1.06-22.61,1.36-34.64,2.04
			c2.18-6.08,3.97-11.31,5.93-16.47c3.41-8.98,6.93-17.93,10.4-26.89c3.07-7.91,6.13-15.82,9.23-23.72c2.95-7.51,5.95-15,8.9-22.51
			c3.03-7.71,6-15.43,9.05-23.13c1.95-4.92,3.91-9.85,6.07-14.68c0.36-0.8,1.77-1.55,2.72-1.58c4.64-0.16,9.3-0.08,13.95-0.08
			c16.95,0,33.9-0.04,50.84,0c9.72,0.02,17.9-3.35,25.25-9.81c4.99-4.39,6.74-10.14,8.99-15.81c3.01-7.6,5.96-15.22,8.92-22.84
			c3.11-8,6.2-16.02,9.33-24.02c2.86-7.33,5.76-14.64,8.64-21.96c3.07-7.81,6.13-15.63,9.18-23.44c3.08-7.89,6.23-15.77,9.21-23.7
			c3.08-8.21,6.47-16.35,8.82-24.77c1.64-5.88,0.98-12.12-1.73-17.84c-5.36-11.31-15.38-15.22-26.85-16.24
			c-6.36-0.57-12.8-0.25-19.21-0.25c-26.15-0.02-52.29,0.03-78.44-0.06c-2.33-0.01-3.32,0.67-4.14,2.9
			c-3.71,10.09-7.68,20.08-11.57,30.1c-2.95,7.61-5.92,15.22-8.89,22.83c-2.97,7.62-5.93,15.25-8.9,22.87
			c-3.05,7.82-6.1,15.63-9.17,23.44c-2.95,7.51-5.94,15-8.88,22.51c-3.02,7.71-5.99,15.44-8.99,23.16
			c-2.96,7.61-5.94,15.22-8.91,22.82c-3.05,7.82-6.09,15.64-9.16,23.46c-2.99,7.6-6.01,15.19-9,22.8
			c-2.99,7.6-5.94,15.21-8.92,22.82c-3.02,7.71-6.07,15.42-9.09,23.13c-2.87,7.32-5.72,14.65-8.58,21.98
			c-3.08,7.91-6.1,15.84-9.27,23.71c-1.9,4.71-4.02,9.33-6.22,14.4c-4.8-1.17-9.81-2.18-14.69-3.64
			c-14.2-4.23-28.08-9.31-41.41-15.87c-12.56-6.18-24.6-13.17-35.98-21.35c-9.6-6.9-18.93-14.1-27.14-22.62
			c-6.18-6.4-12.17-12.98-18.16-19.56c-6.83-7.51-12.42-15.92-17.86-24.48c-7.38-11.6-13.76-23.66-18.32-36.62
			c-2.88-8.18-5.5-16.45-8.09-24.73c-5.68-18.17-7.01-36.93-7-55.79c0.01-14.88,1.35-29.72,4.83-44.21
			c2.32-9.64,5.19-19.19,8.45-28.56c2.54-7.31,5.59-14.54,9.26-21.34c5.37-9.95,11.06-19.8,17.45-29.12
			c5.53-8.08,11.96-15.59,18.47-22.93c5.28-5.96,11.02-11.56,16.98-16.84c13.95-12.36,28.97-23.35,45.44-32.07
			c10.86-5.75,22.2-10.69,33.58-15.36c7.93-3.25,16.3-5.44,24.48-8.11C232.2,211.17,232.42,211.42,232.63,211.67z"/>
		<path class="st2" d="M448.12,361.69c-2.67,6.76-5.21,13.1-7.68,19.47c-4.29,11.07-8.53,22.16-12.81,33.23
			c-3.02,7.82-6.05,15.63-9.11,23.43c-2.94,7.51-5.95,14.99-8.9,22.49c-2.98,7.61-5.89,15.25-8.89,22.85
			c-2.2,5.6-4.46,11.18-6.79,16.73c-0.28,0.67-1.22,1.51-1.86,1.52c-12.56,0.09-25.12,0.07-37.62,0.07c1.32-3.43,2.55-6.6,3.77-9.79
			c4.53-11.87,9.01-23.75,13.58-35.6c2.9-7.53,5.93-15.02,8.87-22.54c3.05-7.79,6.03-15.61,9.08-23.4
			c2.9-7.42,5.85-14.81,8.75-22.22c3.06-7.8,6.1-15.61,9.11-23.42c0.63-1.63,1.34-2.87,3.43-2.86
			C423.24,361.72,435.42,361.69,448.12,361.69z"/>
	</g>
</g>
</svg>
