<?xml version="1.0" encoding="utf-8"?>
<!-- Generator: Adobe Illustrator 25.4.1, SVG Export Plug-In . SVG Version: 6.00 Build 0)  -->
<svg version="1.1" id="Capa_1" xmlns="http://www.w3.org/2000/svg" xmlns:xlink="http://www.w3.org/1999/xlink" x="0px" y="0px"
	 viewBox="0 0 595.28 841.89" style="enable-background:new 0 0 595.28 841.89;" xml:space="preserve">
<style type="text/css">
	.st0{fill:#E1140A;}
	.st1{fill:#F5B0AD;}
	.st2{fill:#FFFEFE;}
	.st3{fill:#FFFEFD;}
	.st4{fill:#E1150B;}
</style>
<g>
	<g>
		<path class="st0" d="M33.84,323.89c175.93,0,351.87,0,527.8,0c0,58.61,0,117.23,0,175.84c-175.89,0-351.79,0-527.76,0
			c0-0.47,0-0.83,0-1.19c0-57.82,0-115.64,0-173.46C33.88,324.68,33.85,324.28,33.84,323.89z M216.47,413.16
			c-0.03-0.32-0.05-0.55-0.08-0.78c-0.54-3.23-1.37-6.39-2.66-9.41c-3.55-8.32-9.46-14.23-17.97-17.44
			c-3.98-1.5-8.13-2.18-12.37-2.35c-4.68-0.18-9.28,0.33-13.72,1.82c-9.8,3.28-16.94,9.56-21.09,19.07
			c-2.66,6.09-3.32,12.48-2.5,19.05c0.5,3.99,1.63,7.78,3.49,11.34c3.7,7.09,9.32,12.11,16.63,15.24c7.73,3.31,15.8,4.14,24.1,2.9
			c5.77-0.86,11.18-2.76,16.26-5.62c2.96-1.66,5.69-3.64,8.02-6.12c0.19-0.2,0.37-0.42,0.58-0.67c-3.97-3.05-7.87-6.05-11.75-9.02
			c-1.12,0.77-2.15,1.51-3.21,2.21c-2.4,1.59-4.9,3-7.68,3.82c-4.67,1.38-9.41,1.5-14.16,0.55c-3.26-0.65-6.19-2.05-8.7-4.26
			c-0.21-0.19-0.47-0.33-0.82-0.57C184.85,426.27,200.63,419.73,216.47,413.16z M335.79,383.13c-4.83,0.03-9,0.62-13.01,2.02
			c-9.63,3.36-16.8,9.52-21.07,18.84c-3.08,6.73-3.74,13.78-2.34,21.02c1.32,6.85,4.47,12.75,9.43,17.65
			c6.38,6.29,14.14,9.59,23.02,10.33c4.34,0.36,8.64,0.01,12.87-1.08c6.58-1.7,12.36-4.85,17.06-9.78
			c8.02-8.41,11.03-18.45,9.24-29.89c-1.31-8.38-5.36-15.31-11.88-20.73C352.19,385.79,344.12,383.23,335.79,383.13z M478.13,453.13
			c2.89-0.01,5.29-0.22,8.32-0.88c7.47-1.62,13.94-5.12,19.1-10.78c7.3-8.01,10.1-17.47,8.77-28.18c-0.66-5.27-2.46-10.14-5.49-14.5
			c-6.62-9.55-15.91-14.48-27.37-15.52c-3.83-0.35-7.64-0.06-11.4,0.76c-7.39,1.62-13.8,5.04-18.94,10.61
			c-7.7,8.36-10.53,18.27-8.75,29.44c1.39,8.73,5.71,15.85,12.66,21.3C461.8,450.68,469.59,453.06,478.13,453.13z M241.76,451.94
			c0-0.35,0-0.66,0-0.97c0-10.36,0-20.73,0-31.09c0-2.22-0.06-4.43,0.02-6.65c0.2-5.21,2.51-9.28,7.02-11.92
			c4.34-2.54,9.01-2.76,13.75-1.23c5.19,1.68,10.31,6.17,10.23,14.18c-0.11,12.24-0.03,24.47-0.03,36.71c0,0.31,0,0.62,0,0.95
			c6.23,0,12.39,0,18.59,0c0-0.37,0-0.68,0-0.99c0-13.64,0-27.27,0-40.91c0-2.14-0.19-4.27-0.65-6.36
			c-1.7-7.6-5.82-13.45-12.72-17.14c-6.26-3.35-12.96-4.19-19.87-2.74c-6.42,1.35-11.81,4.54-15.96,9.69
			c-0.08,0.09-0.17,0.18-0.37,0.39c0-3.27,0-6.39,0-9.52c-6.24,0-12.4,0-18.56,0c0,22.56,0,45.06,0,67.59
			C229.4,451.94,235.54,451.94,241.76,451.94z M416.9,451.94c9.28-22.53,18.54-45.02,27.83-67.58c-7.17,0-14.22,0-21.26,0
			c-5.58,15.31-11.15,30.58-16.78,46c-5.63-15.45-11.2-30.72-16.78-46.02c-7.07,0-14.1,0-21.26,0c9.3,22.59,18.57,45.1,27.84,67.6
			C403.31,451.94,410.06,451.94,416.9,451.94z M82.89,451.93c20.38,0,40.72,0,61.04,0c0.17-1.27,0.11-16.47-0.09-17.07
			c-14.01,0-28.03,0-42.02,0c-0.05-0.09-0.07-0.11-0.08-0.13c-0.01-0.02-0.01-0.05-0.01-0.08c0-0.03-0.01-0.05-0.01-0.08
			c0-23.32,0-46.63,0-69.95c0-0.05,0-0.11,0-0.16c0-0.03,0-0.05,0-0.08c-0.01-0.05-0.01-0.1-0.02-0.15
			c-0.01-0.02-0.03-0.04-0.04-0.06c-0.02-0.02-0.04-0.03-0.07-0.06c-6.21,0-12.43,0-18.7,0C82.89,393.37,82.89,422.61,82.89,451.93z
			"/>
		<path class="st1" d="M33.84,323.89c0.01,0.39,0.04,0.79,0.04,1.18c0,57.82,0,115.64,0,173.46c0,0.36,0,0.73,0,1.19
			c175.97,0,351.86,0,527.76,0c-0.03,0.05-0.05,0.15-0.08,0.15c-0.21,0.01-0.42,0.01-0.63,0.01c-175.49,0-350.98,0-526.48,0
			c-0.26,0-0.51,0-0.77,0c0-58.44,0-116.86,0.01-175.29C33.69,324.37,33.51,324.07,33.84,323.89z"/>
		<path class="st2" d="M216.47,413.16c-15.84,6.57-31.62,13.11-47.65,19.76c0.35,0.24,0.6,0.38,0.82,0.57
			c2.51,2.21,5.44,3.61,8.7,4.26c4.76,0.95,9.5,0.83,14.16-0.55c2.78-0.82,5.28-2.23,7.68-3.82c1.05-0.7,2.08-1.43,3.21-2.21
			c3.87,2.98,7.78,5.97,11.75,9.02c-0.21,0.24-0.39,0.46-0.58,0.67c-2.33,2.49-5.06,4.46-8.02,6.12c-5.08,2.85-10.5,4.75-16.26,5.62
			c-8.29,1.24-16.36,0.42-24.1-2.9c-7.3-3.13-12.93-8.15-16.63-15.24c-1.86-3.56-2.99-7.36-3.49-11.34
			c-0.82-6.57-0.16-12.96,2.5-19.05c4.15-9.51,11.29-15.79,21.09-19.07c4.45-1.49,9.04-2,13.72-1.82c4.25,0.16,8.39,0.85,12.37,2.35
			c8.51,3.21,14.42,9.12,17.97,17.44c1.29,3.02,2.13,6.17,2.66,9.41C216.43,412.6,216.44,412.84,216.47,413.16z M196.36,407.4
			c-2.12-4.34-5.25-7.42-9.89-8.81c-2.71-0.81-5.46-0.81-8.22-0.3c-4.35,0.8-7.95,2.87-10.61,6.45c-2.82,3.8-4.01,8.13-3.97,12.82
			c0.01,1.07,0.11,2.13,0.17,3.33C174.74,416.36,185.5,411.9,196.36,407.4z"/>
		<path class="st2" d="M335.79,383.13c8.33,0.1,16.4,2.66,23.31,8.4c6.52,5.42,10.57,12.34,11.88,20.73
			c1.79,11.43-1.22,21.48-9.24,29.89c-4.7,4.93-10.48,8.08-17.06,9.78c-4.23,1.09-8.53,1.44-12.87,1.08
			c-8.88-0.74-16.65-4.04-23.02-10.33c-4.96-4.89-8.11-10.8-9.43-17.65c-1.4-7.24-0.74-14.3,2.34-21.02
			c4.27-9.32,11.44-15.49,21.07-18.84C326.79,383.76,330.96,383.16,335.79,383.13z M317.06,418.01c-0.01,1.88,0.22,3.73,0.71,5.55
			c2.43,9.02,10.77,14.7,19.94,13.46c5.66-0.76,9.99-3.66,12.82-8.63c2.58-4.54,3.16-9.45,2.14-14.53c-0.76-3.82-2.55-7.14-5.4-9.82
			c-4.01-3.78-8.79-5.4-14.27-4.82c-6.27,0.66-10.89,3.81-13.8,9.41C317.68,411.55,317.08,414.72,317.06,418.01z"/>
		<path class="st2" d="M478.13,453.13c-8.54-0.06-16.33-2.45-23.09-7.75c-6.95-5.45-11.27-12.56-12.66-21.3
			c-1.78-11.17,1.05-21.08,8.75-29.44c5.13-5.58,11.55-8.99,18.94-10.61c3.76-0.82,7.57-1.1,11.4-0.76
			c11.46,1.04,20.75,5.97,27.37,15.52c3.02,4.36,4.83,9.23,5.49,14.5c1.33,10.71-1.47,20.18-8.77,28.18
			c-5.16,5.67-11.63,9.16-19.1,10.78C483.42,452.9,481.02,453.12,478.13,453.13z M460.22,418.01c0.04,0.79,0.04,1.58,0.13,2.37
			c0.1,0.84,0.24,1.67,0.43,2.49c2.14,9.37,10.68,15.42,20.11,14.15c5.91-0.8,10.32-3.91,13.13-9.18c2.1-3.94,2.67-8.19,2.08-12.58
			c-0.58-4.35-2.4-8.13-5.59-11.16c-4.36-4.14-9.58-5.7-15.5-4.72c-5.98,0.98-10.25,4.3-12.86,9.75
			C460.79,411.92,460.23,414.91,460.22,418.01z"/>
		<path class="st2" d="M241.76,451.94c-6.22,0-12.35,0-18.55,0c0-22.52,0-45.03,0-67.59c6.16,0,12.32,0,18.56,0
			c0,3.13,0,6.25,0,9.52c0.2-0.21,0.29-0.29,0.37-0.39c4.15-5.15,9.54-8.35,15.96-9.69c6.91-1.45,13.61-0.61,19.87,2.74
			c6.91,3.69,11.02,9.54,12.72,17.14c0.47,2.09,0.65,4.21,0.65,6.36c-0.01,13.64,0,27.27,0,40.91c0,0.31,0,0.63,0,0.99
			c-6.2,0-12.36,0-18.59,0c0-0.33,0-0.64,0-0.95c0-12.24-0.08-24.48,0.03-36.71c0.07-8.01-5.04-12.5-10.23-14.18
			c-4.73-1.53-9.4-1.31-13.75,1.23c-4.5,2.64-6.81,6.71-7.02,11.92c-0.09,2.21-0.02,4.43-0.02,6.65c0,10.36,0,20.73,0,31.09
			C241.76,451.28,241.76,451.59,241.76,451.94z"/>
		<path class="st2" d="M416.9,451.94c-6.84,0-13.59,0-20.42,0c-9.27-22.5-18.54-45.01-27.84-67.6c7.16,0,14.19,0,21.26,0
			c5.58,15.3,11.15,30.58,16.78,46.02c5.63-15.43,11.19-30.69,16.78-46c7.04,0,14.1,0,21.26,0
			C435.44,406.92,426.18,429.41,416.9,451.94z"/>
		<path class="st3" d="M82.89,451.93c0-29.32,0-58.56,0-87.83c6.26,0,12.49,0,18.7,0c0.03,0.03,0.05,0.05,0.07,0.06
			c0.02,0.02,0.04,0.04,0.04,0.06c0.01,0.05,0.02,0.1,0.02,0.15c0,0.03,0,0.05,0,0.08c0,0.05,0,0.11,0,0.16c0,23.32,0,46.63,0,69.95
			c0,0.03,0,0.05,0.01,0.08c0,0.03,0,0.05,0.01,0.08c0.01,0.02,0.02,0.04,0.08,0.13c13.99,0,28.01,0,42.02,0
			c0.19,0.6,0.26,15.81,0.09,17.07C123.6,451.93,103.27,451.93,82.89,451.93z"/>
		<path class="st4" d="M196.36,407.4c-10.86,4.5-21.62,8.96-32.52,13.48c-0.06-1.2-0.16-2.26-0.17-3.33
			c-0.05-4.69,1.15-9.02,3.97-12.82c2.66-3.58,6.26-5.64,10.61-6.45c2.76-0.51,5.51-0.51,8.22,0.3
			C191.1,399.98,194.23,403.07,196.36,407.4z"/>
		<path class="st4" d="M317.06,418.01c0.02-3.29,0.62-6.46,2.15-9.39c2.91-5.6,7.53-8.75,13.8-9.41c5.48-0.58,10.27,1.05,14.27,4.82
			c2.85,2.68,4.63,5.99,5.4,9.82c1.02,5.08,0.44,9.99-2.14,14.53c-2.83,4.97-7.16,7.87-12.82,8.63
			c-9.17,1.23-17.51-4.45-19.94-13.46C317.28,421.73,317.05,419.89,317.06,418.01z"/>
		<path class="st4" d="M460.22,418.01c0.02-3.1,0.57-6.09,1.92-8.89c2.61-5.45,6.89-8.76,12.86-9.75c5.92-0.97,11.14,0.58,15.5,4.72
			c3.19,3.03,5.01,6.81,5.59,11.16c0.59,4.4,0.02,8.64-2.08,12.58c-2.8,5.27-7.21,8.38-13.13,9.18
			c-9.43,1.27-17.97-4.78-20.11-14.15c-0.19-0.82-0.33-1.65-0.43-2.49C460.25,419.59,460.25,418.8,460.22,418.01z"/>
	</g>
</g>
</svg>
