<?xml version="1.0" encoding="utf-8"?>
<!-- Generator: Adobe Illustrator 25.4.1, SVG Export Plug-In . SVG Version: 6.00 Build 0)  -->
<svg version="1.1" id="Capa_1" xmlns="http://www.w3.org/2000/svg" xmlns:xlink="http://www.w3.org/1999/xlink" x="0px" y="0px"
	 viewBox="0 0 595.28 841.89" style="enable-background:new 0 0 595.28 841.89;" xml:space="preserve">
<style type="text/css">
	.st0{fill:#FEFEFE;}
	.st1{fill:#1F1F1F;}
	.st2{fill:#76B701;}
	.st3{fill:#76B604;}
	.st4{fill:#FBFBFB;}
	.st5{fill:#F9F9F9;}
	.st6{fill:#EDEDED;}
	.st7{fill:#F3F3F3;}
	.st8{fill:#F6F6F6;}
	.st9{fill:#F4F4F4;}
	.st10{fill:#F5F5F5;}
	.st11{fill:#C0C0C0;}
	.st12{fill:#646564;}
	.st13{fill:#FBFDF9;}
	.st14{fill:#F9FBF4;}
	.st15{fill:#F8FBF3;}
	.st16{fill:#F7FBF1;}
	.st17{fill:#F7FAF2;}
	.st18{fill:#F4F9EC;}
	.st19{fill:#F4F9EB;}
	.st20{fill:#7EBC10;}
	.st21{fill:#202020;}
	.st22{fill:#222222;}
	.st23{fill:#7ABA09;}
	.st24{fill:#7AB908;}
	.st25{fill:#79B906;}
	.st26{fill:#FBFCF8;}
	.st27{fill:#7BBA0A;}
</style>
<g>
	<g>
		<path class="st0" d="M-16,547.89c0-87.89,0-175.93,0-264c216.96,0,433.92,0,651,0c0,87.93,0,175.89,0,264
			C418.08,547.89,201.04,547.89-16,547.89z M242.82,505.58c0.81,0.03,1.62,0.09,2.43,0.09c91.38,0,182.75,0.01,274.13,0
			c1.08,0,2.15-0.13,3.23-0.2c8.35,0.91,8.73,0.75,10-4.13c6.13-23.54,12.2-47.09,18.4-70.6c7.31-27.68,14.74-55.33,22.09-83
			c1.74-6.55,3.4-13.12,5.14-19.85c-3.29,0-6.12,0-8.94,0c-1.08-0.05-2.16-0.15-3.23-0.15c-91.07-0.01-182.15-0.01-273.22,0
			c-1.08,0-2.16,0.09-3.24,0.14c-0.94-0.05-1.89-0.15-2.83-0.15c-81.13-0.01-162.27-0.01-243.4,0c-1.04,0-2.08,0.15-3.13,0.23
			c0,59.35,0,118.44,0,177.77c1.34,0,2.41,0,3.47,0c65.42,0,130.84,0,196.26-0.01C240.93,505.73,241.87,505.63,242.82,505.58z"/>
		<path class="st1" d="M522.61,505.47c-1.08,0.07-2.15,0.2-3.23,0.2c-91.38,0.01-182.75,0.01-274.13,0c-0.81,0-1.62-0.06-2.43-0.09
			c6.55-25.14,13.05-50.29,19.67-75.41c8.99-34.11,18.08-68.19,27.13-102.29c1.08-0.05,2.16-0.14,3.24-0.14
			c91.07-0.01,182.15-0.01,273.22,0c1.08,0,2.16,0.1,3.23,0.15c-0.31,1.31-0.6,2.62-0.94,3.92c-9.45,35.77-18.91,71.53-28.35,107.29
			C534.19,461.22,528.41,483.35,522.61,505.47z M503.11,364.94c-0.06-0.71-0.12-1.42-0.18-2.13c-1.62,0.69-3.23,1.38-5.47,2.35
			c1.46,0.44,2.08,0.63,2.7,0.82c0.67,0.8,1.34,1.6,2.01,2.4C502.48,367.23,502.79,366.08,503.11,364.94z M315.79,401.75
			c0,23.65,0,46.84,0,70.09c4.43,0,8.58,0,13.08,0c0-9.36,0-18.51,0-27.98c3.3,0,6.27,0.17,9.2-0.05c2.46-0.18,3.9,0.63,5.16,2.81
			c4.47,7.71,9.11,15.32,13.82,22.88c0.68,1.09,2.07,2.36,3.21,2.44c4.11,0.29,8.26,0.12,13.08,0.12
			c-5.77-9.65-11.14-18.63-16.66-27.88c6.74-1.23,11.56-4.29,11.85-11.45c0.27-6.62,0.22-13.26,0.04-19.89
			c-0.17-6.08-4.74-10.92-10.82-11.01C343.82,401.6,329.9,401.75,315.79,401.75z M497.05,472.05c-1.02-1.71-1.66-2.86-2.37-3.98
			c-6.34-10.06-12.66-20.13-19.09-30.14c-1.05-1.64-1.42-2.77-0.17-4.61c3.42-5,6.49-10.22,9.77-15.32
			c3.4-5.28,6.87-10.5,10.68-16.31c-4.39,0-8.02,0.18-11.62-0.06c-2.63-0.18-4.12,0.69-5.49,2.98c-3.69,6.17-7.7,12.16-11.87,18.66
			c-4.25-6.76-8.1-12.93-12.03-19.05c-0.61-0.95-1.54-2.35-2.37-2.39c-5.02-0.22-10.05-0.11-15.47-0.11
			c6.9,11.4,13.32,22.17,19.95,32.8c1.36,2.17,0.82,3.55-0.41,5.38c-6.46,9.67-12.81,19.4-19.19,29.12
			c-0.54,0.82-0.93,1.73-1.6,3.01c4.18,0,7.82-0.17,11.44,0.06c2.5,0.15,3.92-0.78,5.2-2.85c4.25-6.86,8.69-13.6,13.27-20.71
			c4.54,7.15,8.81,14.04,13.3,20.77c0.82,1.23,2.53,2.51,3.92,2.61C487.35,472.26,491.82,472.05,497.05,472.05z M396.21,414.04
			c0,19.72,0,38.74,0,57.7c4.62,0,8.87,0,13.51,0c0-19.34,0-38.36,0-57.83c6.8,0,13.21,0,19.5,0c0-4.31,0-8.17,0-11.87
			c-17.89,0-35.54,0-53.1,0c0,4.09,0,7.84,0,12C382.71,414.04,389.14,414.04,396.21,414.04z M417.73,375.62
			c0-3.24,0.03-6.49-0.01-9.73c-0.04-3.65-2-5.46-5.56-5.51c-4.46-0.06-8.92-0.04-13.38-0.01c-3.45,0.02-5.37,1.94-5.45,5.23
			c-0.16,6.62-0.14,13.24,0.01,19.86c0.08,3.41,2.16,5.07,5.56,5.06c4.46-0.01,8.92,0.01,13.38-0.01c3.67-0.02,5.43-1.96,5.45-5.56
			C417.75,381.83,417.73,378.72,417.73,375.62z M440.1,379.18c4.4-2.3,6.72-12.86,3.63-16.68c-0.84-1.04-2.45-1.98-3.75-2.03
			c-5.78-0.22-11.57-0.09-17.5-0.09c0,10.22,0,20.03,0,29.86c1.92,0,3.6,0,5.67,0c0-3.96,0-7.67,0-11.25
			c3.61-1.12,5.8-0.11,7.14,3.06c0.68,1.6,2.02,2.94,2.63,4.55c1.6,4.21,4.67,4.37,8.66,3.58
			C444.31,386.32,442.2,382.75,440.1,379.18z M333.41,378.72c0.47,6.32,0.47,6.32-5.39,6.3c-0.68,0-1.36,0.04-2.03-0.02
			c-3.02-0.26-4.67-1.8-4.65-4.95c0.03-3.52,0.11-7.04-0.03-10.55c-0.1-2.62,0.89-3.65,3.54-3.57c4.55,0.13,9.11,0.04,13.69,0.04
			c0-2.08,0-3.75,0-5.59c-6.11,0-11.92-0.05-17.73,0.02c-3.32,0.04-5.34,1.59-5.33,5.19c0.02,5.68-0.04,11.36,0.02,17.04
			c0.03,3.09,4.36,7.72,7.42,7.82c3.92,0.13,7.84,0.03,11.76,0.01c2.9-0.01,4.78-1.6,4.96-4.33c0.28-4.53,0.08-9.08,0.08-13.65
			c-4.36,0-8.37,0-12.55,0c0,2.01,0,3.86,0,5.96C329.24,378.53,331.22,378.62,333.41,378.72z M361.92,378.65c0-2.44,0-4.27,0-6.33
			c-3.85,0-7.47,0-11.24,0c0-2.19,0-4.14,0-6.5c4.81,0,9.47,0,14.27,0c0-1.96,0-3.51,0-5.21c-6.85,0-13.51,0-20.27,0
			c0,10.04,0,19.82,0,29.64c6.91,0,13.58,0,20.23,0c0-1.83,0-3.38,0-5.37c-4.87,0-9.52,0-14.19,0c0-2.27,0-4.11,0-6.23
			C354.51,378.65,358.11,378.65,361.92,378.65z M493.65,384.99c-4.77,0-9.44,0-14.27,0c0-2.28,0-4.11,0-6.37c3.9,0,7.63,0,11.54,0
			c0-2.23,0-4.04,0-6.21c-3.92,0-7.65,0-11.52,0c0-2.31,0-4.26,0-6.63c4.86,0,9.53,0,14.19,0c0-1.99,0-3.55,0-5.2
			c-6.8,0-13.37,0-20.05,0c0,10.02,0,19.84,0,29.73c6.79,0,13.36,0,20.11,0C493.65,388.71,493.65,387.26,493.65,384.99z
			 M468.98,360.37c-5.03,0-9.88-0.12-14.71,0.04c-3.28,0.11-4.83,2.34-4.88,5.39c-0.12,6.49-0.12,12.99,0.01,19.48
			c0.06,2.86,1.51,5.04,4.64,5.13c4.96,0.15,9.94,0.04,14.96,0.04c0-1.94,0-3.51,0-5.48c-3.54,0-6.9-0.06-10.26,0.02
			c-2.36,0.06-3.48-0.79-3.4-3.3c0.12-4.06,0.15-8.12-0.01-12.18c-0.11-2.91,1.18-3.82,3.89-3.7c3.21,0.14,6.42,0.03,9.76,0.03
			C468.98,363.85,468.98,362.3,468.98,360.37z M375.14,390.36c0-4.02,0-7.84,0-11.94c4.09,0,7.7,0,11.43,0c0-2.13,0-3.94,0-6.1
			c-3.97,0-7.69,0-11.35,0c0-2.33,0-4.29,0-6.61c4.89,0,9.57,0,14.18,0c0-1.93,0-3.5,0-5.11c-6.8,0-13.36,0-20.04,0
			c0,10.03,0,19.83,0,29.77C371.18,390.36,372.78,390.36,375.14,390.36z"/>
		<path class="st2" d="M289.62,327.88c-9.05,34.09-18.14,68.18-27.13,102.29c-6.62,25.12-13.11,50.27-19.67,75.41
			c-0.95,0.05-1.89,0.16-2.83,0.16c-65.42,0.01-130.84,0.01-196.26,0.01c-1.06,0-2.13,0-3.47,0c0-59.33,0-118.43,0-177.77
			c1.05-0.08,2.09-0.23,3.13-0.23c81.13-0.01,162.27-0.01,243.4,0C287.73,327.74,288.67,327.83,289.62,327.88z M123.83,370.05
			c-12.22,0.87-22.21,7.17-31.62,14.03c-10.25,7.47-10.13,4.51-3.05,16.48c7.71,13.03,18.9,21.72,34.68,23.06c0,2.67,0,5.33,0,8.03
			c22.53,0,44.64,0,66.75,0c0-23.87,0-47.47,0-71.05c-22.37,0-44.39,0-66.75,0C123.83,363.88,123.83,366.97,123.83,370.05z
			 M146.02,471.66c6.01,0,11.54,0.21,17.04-0.07c4.04-0.21,7.1-2.66,7.73-6.61c0.63-3.9,0.6-8.04,0.03-11.96
			c-0.53-3.73-3.35-6.47-7.07-6.97c-5.82-0.77-11.73-0.83-17.74-1.19C146.02,454.32,146.02,462.95,146.02,471.66z M82.48,452.35
			c10.44-1.15,11.57-0.13,11.57,9.84c0,3.19,0,6.39,0,9.67c2.86,0,5.09,0,7.57,0c0-6.03,0.28-11.84-0.09-17.6
			c-0.3-4.62-3.25-8.13-7.44-8.45c-6.27-0.47-12.6-0.12-18.91-0.12c0,8.68,0,17.4,0,26.17c2.54,0,4.78,0,7.29,0
			C82.48,465.27,82.48,458.94,82.48,452.35z M185.45,472.01c3.97-0.13,8.08,1.74,9.21-3.76c0.07-0.36,1.07-0.74,1.64-0.75
			c2.97-0.08,5.95-0.09,8.92,0c0.7,0.02,1.9,0.45,2,0.89c1.44,6.18,5.82,2.97,9.69,3.72c-3.19-8.09-6.02-15.37-8.97-22.59
			c-0.63-1.53-1.53-3.89-2.65-4.1c-2.85-0.55-5.89-0.17-8.84,0c-0.41,0.02-0.88,0.95-1.12,1.54
			C192.1,455.08,188.9,463.23,185.45,472.01z M102.62,445.38c2.17,6.71,4.22,13.1,6.3,19.48c2.4,7.36,2.41,7.26,10.06,7.3
			c2.4,0.01,3.58-0.59,4.27-3.07c1.44-5.2,3.32-10.27,4.98-15.4c0.88-2.72,1.67-5.47,2.53-8.32c-7.64-0.56-7.62-0.56-9.58,6.01
			c-1.34,4.5-2.73,8.98-4.33,14.22c-1.48-5.13-2.74-9.53-4.01-13.92C110.8,444.74,110.8,444.74,102.62,445.38z M141.44,445.41
			c-2.85,0-5.2,0-7.47,0c0,9.01,0,17.72,0,26.4c2.68,0,5.04,0,7.47,0C141.44,462.89,141.44,454.27,141.44,445.41z M175.25,445.27
			c0,9.12,0,17.83,0,26.55c2.61,0,4.95,0,7.29,0c0-9.01,0-17.7,0-26.55C180,445.27,177.75,445.27,175.25,445.27z M218.33,472.8
			c5.67-1.03,5.67-1.03,2.82-3.66c-0.78-0.29-1.56-0.59-2.49-0.94C218.56,469.64,218.46,471.02,218.33,472.8z"/>
		<path class="st3" d="M522.61,505.47c5.8-22.12,11.58-44.25,17.41-66.37c9.43-35.77,18.9-71.53,28.35-107.29
			c0.34-1.3,0.63-2.61,0.94-3.92c2.83,0,5.65,0,8.94,0c-1.74,6.74-3.4,13.31-5.14,19.85c-7.36,27.67-14.79,55.32-22.09,83
			c-6.21,23.52-12.28,47.07-18.4,70.6C531.35,506.22,530.96,506.38,522.61,505.47z"/>
		<path class="st4" d="M315.79,401.75c14.11,0,28.03-0.15,41.95,0.07c6.08,0.09,10.65,4.93,10.82,11.01
			c0.18,6.63,0.23,13.27-0.04,19.89c-0.29,7.16-5.1,10.22-11.85,11.45c5.53,9.25,10.9,18.23,16.66,27.88
			c-4.82,0-8.97,0.18-13.08-0.12c-1.14-0.08-2.53-1.35-3.21-2.44c-4.71-7.56-9.36-15.17-13.82-22.88c-1.26-2.18-2.7-2.99-5.16-2.81
			c-2.93,0.22-5.9,0.05-9.2,0.05c0,9.47,0,18.62,0,27.98c-4.5,0-8.64,0-13.08,0C315.79,448.59,315.79,425.4,315.79,401.75z
			 M328.79,430.29c7.74,0,15.01,0.16,22.26-0.15c1.25-0.05,3.2-1.98,3.44-3.29c0.53-2.87,0.47-5.95,0.02-8.85
			c-0.21-1.33-1.86-3.42-2.93-3.46c-7.49-0.3-14.99-0.16-22.63-0.16c-0.08,1.13-0.16,1.79-0.16,2.44
			C328.79,421.11,328.79,425.4,328.79,430.29z"/>
		<path class="st5" d="M497.05,472.05c-5.23,0-9.7,0.21-14.13-0.12c-1.39-0.1-3.1-1.38-3.92-2.61c-4.49-6.73-8.75-13.62-13.3-20.77
			c-4.58,7.11-9.01,13.86-13.27,20.71c-1.28,2.07-2.7,3-5.2,2.85c-3.62-0.22-7.26-0.06-11.44-0.06c0.68-1.28,1.07-2.19,1.6-3.01
			c6.37-9.72,12.73-19.46,19.19-29.12c1.22-1.83,1.76-3.21,0.41-5.38c-6.63-10.64-13.04-21.4-19.95-32.8
			c5.42,0,10.45-0.11,15.47,0.11c0.83,0.04,1.76,1.44,2.37,2.39c3.93,6.12,7.77,12.29,12.03,19.05c4.17-6.51,8.18-12.49,11.87-18.66
			c1.37-2.29,2.86-3.16,5.49-2.98c3.6,0.24,7.23,0.06,11.62,0.06c-3.81,5.8-7.28,11.03-10.68,16.31
			c-3.28,5.09-6.35,10.32-9.77,15.32c-1.26,1.83-0.89,2.96,0.17,4.61c6.42,10.01,12.74,20.08,19.09,30.14
			C495.39,469.19,496.04,470.34,497.05,472.05z"/>
		<path class="st5" d="M396.21,414.04c-7.07,0-13.49,0-20.1,0c0-4.15,0-7.91,0-12c17.56,0,35.21,0,53.1,0c0,3.7,0,7.56,0,11.87
			c-6.29,0-12.7,0-19.5,0c0,19.46,0,38.49,0,57.83c-4.64,0-8.89,0-13.51,0C396.21,452.78,396.21,433.76,396.21,414.04z"/>
		<path class="st6" d="M417.73,375.62c0,3.11,0.01,6.22,0,9.32c-0.02,3.6-1.78,5.55-5.45,5.56c-4.46,0.02-8.92,0-13.38,0.01
			c-3.4,0.01-5.48-1.66-5.56-5.06c-0.15-6.62-0.17-13.24-0.01-19.86c0.08-3.29,2-5.21,5.45-5.23c4.46-0.03,8.92-0.06,13.38,0.01
			c3.56,0.05,5.53,1.87,5.56,5.51C417.76,369.13,417.73,372.37,417.73,375.62z M399.28,375.33c0,2.3-0.18,4.63,0.09,6.9
			c0.11,0.95,1.1,2.47,1.81,2.55c2.81,0.3,5.7,0.35,8.5,0c0.84-0.11,2.06-1.78,2.12-2.79c0.24-4.32,0.32-8.68-0.04-12.99
			c-0.09-1.13-1.98-3-3.06-3.01c-11.2-0.15-9.25-1.29-9.42,8.53C399.28,374.79,399.28,375.06,399.28,375.33z"/>
		<path class="st7" d="M440.1,379.18c2.1,3.57,4.2,7.14,6.48,11c-3.98,0.79-7.06,0.63-8.66-3.58c-0.61-1.62-1.95-2.95-2.63-4.55
			c-1.34-3.17-3.53-4.18-7.14-3.06c0,3.57,0,7.29,0,11.25c-2.06,0-3.74,0-5.67,0c0-9.82,0-19.63,0-29.86
			c5.93,0,11.72-0.12,17.5,0.09c1.29,0.05,2.91,0.99,3.75,2.03C446.82,366.33,444.51,376.88,440.1,379.18z M427.98,372.44
			c2.8,0,5.1-0.1,7.38,0.03c2.43,0.14,3.46-0.85,3.44-3.29c-0.02-2.39-1.01-3.47-3.44-3.37c-2.38,0.1-4.77,0.02-7.37,0.02
			c0,1.47,0,2.4,0,3.33C427.98,370.09,427.98,371.01,427.98,372.44z"/>
		<path class="st8" d="M333.41,378.72c-2.18-0.1-4.17-0.19-6.22-0.28c0-2.1,0-3.94,0-5.96c4.17,0,8.19,0,12.55,0
			c0,4.57,0.21,9.12-0.08,13.65c-0.17,2.73-2.06,4.32-4.96,4.33c-3.92,0.02-7.85,0.12-11.76-0.01c-3.05-0.1-7.39-4.73-7.42-7.82
			c-0.06-5.68,0-11.36-0.02-17.04c-0.01-3.6,2-5.15,5.33-5.19c5.81-0.07,11.62-0.02,17.73-0.02c0,1.83,0,3.5,0,5.59
			c-4.58,0-9.14,0.1-13.69-0.04c-2.65-0.08-3.65,0.95-3.54,3.57c0.14,3.51,0.06,7.03,0.03,10.55c-0.02,3.15,1.63,4.69,4.65,4.95
			c0.67,0.06,1.35,0.01,2.03,0.02C333.87,385.04,333.87,385.04,333.41,378.72z"/>
		<path class="st6" d="M361.92,378.65c-3.81,0-7.41,0-11.2,0c0,2.12,0,3.96,0,6.23c4.67,0,9.33,0,14.19,0c0,1.99,0,3.55,0,5.37
			c-6.65,0-13.32,0-20.23,0c0-9.82,0-19.6,0-29.64c6.75,0,13.41,0,20.27,0c0,1.7,0,3.25,0,5.21c-4.8,0-9.46,0-14.27,0
			c0,2.36,0,4.31,0,6.5c3.77,0,7.39,0,11.24,0C361.92,374.39,361.92,376.21,361.92,378.65z"/>
		<path class="st9" d="M493.65,384.99c0,2.28,0,3.72,0,5.33c-6.75,0-13.33,0-20.11,0c0-9.9,0-19.71,0-29.73c6.68,0,13.24,0,20.05,0
			c0,1.65,0,3.21,0,5.2c-4.66,0-9.33,0-14.19,0c0,2.37,0,4.32,0,6.63c3.87,0,7.6,0,11.52,0c0,2.17,0,3.98,0,6.21
			c-3.91,0-7.64,0-11.54,0c0,2.25,0,4.09,0,6.37C484.21,384.99,488.88,384.99,493.65,384.99z"/>
		<path class="st6" d="M468.98,360.37c0,1.93,0,3.48,0,5.48c-3.34,0-6.56,0.11-9.76-0.03c-2.72-0.12-4.01,0.79-3.89,3.7
			c0.16,4.05,0.13,8.12,0.01,12.18c-0.08,2.52,1.04,3.36,3.4,3.3c3.36-0.09,6.72-0.02,10.26-0.02c0,1.96,0,3.54,0,5.48
			c-5.02,0-10,0.11-14.96-0.04c-3.13-0.09-4.58-2.27-4.64-5.13c-0.13-6.49-0.13-12.99-0.01-19.48c0.06-3.05,1.61-5.28,4.88-5.39
			C459.11,360.25,463.95,360.37,468.98,360.37z"/>
		<path class="st10" d="M375.14,390.36c-2.36,0-3.96,0-5.77,0c0-9.93,0-19.74,0-29.77c6.67,0,13.24,0,20.04,0c0,1.62,0,3.18,0,5.11
			c-4.61,0-9.28,0-14.18,0c0,2.32,0,4.28,0,6.61c3.65,0,7.38,0,11.35,0c0,2.16,0,3.98,0,6.1c-3.73,0-7.34,0-11.43,0
			C375.14,382.52,375.14,386.34,375.14,390.36z"/>
		<path class="st11" d="M500.16,365.98c-0.62-0.19-1.24-0.38-2.7-0.82c2.24-0.96,3.86-1.65,5.47-2.35c0.06,0.71,0.12,1.42,0.18,2.13
			C502.13,365.28,501.14,365.63,500.16,365.98z"/>
		<path class="st12" d="M500.16,365.98c0.99-0.35,1.97-0.69,2.95-1.04c-0.32,1.15-0.63,2.29-0.95,3.44
			C501.49,367.58,500.82,366.78,500.16,365.98z"/>
		<path class="st13" d="M123.83,370.05c0-3.08,0-6.17,0-9.45c22.36,0,44.38,0,66.75,0c0,23.58,0,47.18,0,71.05
			c-22.1,0-44.22,0-66.75,0c0-2.69,0-5.36,0-8.03l-0.06,0.08c21.26,0.17,40.69-5.76,59.36-17.44c-4.72-2.69-8.65-4.94-11.74-6.71
			c-7.69,4.97-14.46,9.99-21.81,13.9c-7.95,4.23-16.65,6.21-25.81,4.47l0.05,0.06c-0.01-1.91-0.03-3.83-0.04-5.74
			c18.61,1.99,30.13-9.69,42.25-21.57c-11.92-12.12-24.56-21.48-42.25-20.69L123.83,370.05z"/>
		<path class="st14" d="M123.83,423.62c-15.77-1.35-26.96-10.03-34.68-23.06c-7.08-11.97-7.2-9.02,3.05-16.48
			c9.42-6.86,19.4-13.16,31.62-14.03c0,0-0.06-0.08-0.06-0.08c0.02,1.9,0.04,3.79,0.06,5.69c0.01,0.26,0.01,0.51,0.01,0.77
			c-11.07,0.46-19.81,5.63-27.08,13.6c-0.71,0.77-1.11,2.56-0.72,3.48c5.33,12.58,13.43,22.1,27.78,24.47c0,0-0.05-0.06-0.05-0.06
			c0,1.93,0,3.85,0,5.78L123.83,423.62z"/>
		<path class="st15" d="M146.02,471.66c0-8.71,0-17.34,0-26.8c6.01,0.37,11.92,0.42,17.74,1.19c3.72,0.5,6.54,3.24,7.07,6.97
			c0.56,3.92,0.59,8.06-0.03,11.96c-0.63,3.94-3.69,6.4-7.73,6.61C157.56,471.87,152.02,471.66,146.02,471.66z M153.62,465.78
			c3.57,0.48,7,0.84,9.29-2.48c1.93-2.8,1.96-5.97,0.28-8.85c-2.15-3.68-5.79-3.36-9.57-2.95
			C153.62,456.27,153.62,460.95,153.62,465.78z"/>
		<path class="st16" d="M82.48,452.35c0,6.59,0,12.92,0,19.5c-2.52,0-4.75,0-7.29,0c0-8.76,0-17.48,0-26.17
			c6.3,0,12.63-0.35,18.91,0.12c4.19,0.32,7.14,3.83,7.44,8.45c0.37,5.76,0.09,11.57,0.09,17.6c-2.48,0-4.71,0-7.57,0
			c0-3.28,0-6.47,0-9.67C94.06,452.22,92.92,451.2,82.48,452.35z"/>
		<path class="st17" d="M185.45,472.01c3.46-8.78,6.65-16.93,9.88-25.06c0.23-0.59,0.71-1.51,1.12-1.54c2.95-0.17,6-0.55,8.84,0
			c1.12,0.22,2.02,2.57,2.65,4.1c2.95,7.23,5.78,14.51,8.97,22.59c-3.87-0.75-8.25,2.46-9.69-3.72c-0.1-0.44-1.3-0.86-2-0.89
			c-2.97-0.1-5.95-0.08-8.92,0c-0.57,0.01-1.56,0.39-1.64,0.75C193.52,473.75,189.42,471.88,185.45,472.01z M196.71,462.26
			c3.05,0,5.62,0,8.58,0c-1.43-3.78-2.69-7.15-3.96-10.52c-0.3,0.09-0.61,0.17-0.91,0.26C199.19,455.37,197.97,458.75,196.71,462.26
			z"/>
		<path class="st17" d="M102.62,445.38c8.18-0.64,8.19-0.64,10.21,6.31c1.28,4.39,2.54,8.79,4.01,13.92
			c1.6-5.24,2.99-9.72,4.33-14.22c1.96-6.57,1.94-6.57,9.58-6.01c-0.86,2.84-1.66,5.59-2.53,8.32c-1.66,5.14-3.54,10.21-4.98,15.4
			c-0.69,2.48-1.87,3.08-4.27,3.07c-7.65-0.04-7.66,0.06-10.06-7.3C106.83,458.48,104.78,452.09,102.62,445.38z"/>
		<path class="st18" d="M141.44,445.41c0,8.86,0,17.48,0,26.4c-2.43,0-4.79,0-7.47,0c0-8.69,0-17.39,0-26.4
			C136.23,445.41,138.59,445.41,141.44,445.41z"/>
		<path class="st19" d="M175.25,445.27c2.5,0,4.75,0,7.29,0c0,8.85,0,17.54,0,26.55c-2.35,0-4.68,0-7.29,0
			C175.25,463.1,175.25,454.39,175.25,445.27z"/>
		<path class="st20" d="M218.33,472.8c0.13-1.78,0.23-3.16,0.33-4.59c0.92,0.35,1.71,0.64,2.49,0.94
			C224,471.77,224,471.77,218.33,472.8z"/>
		<path class="st21" d="M328.79,430.29c0-4.89-0.01-9.19,0.01-13.48c0-0.65,0.08-1.31,0.16-2.44c7.64,0,15.15-0.14,22.63,0.16
			c1.07,0.04,2.73,2.14,2.93,3.46c0.45,2.9,0.5,5.98-0.02,8.85c-0.24,1.32-2.2,3.24-3.44,3.29
			C343.8,430.45,336.53,430.29,328.79,430.29z"/>
		<path class="st1" d="M399.28,375.33c0-0.27-0.01-0.54,0-0.81c0.16-9.82-1.79-8.67,9.42-8.53c1.08,0.01,2.96,1.89,3.06,3.01
			c0.36,4.3,0.28,8.66,0.04,12.99c-0.06,1.01-1.27,2.68-2.12,2.79c-2.8,0.35-5.69,0.3-8.5,0c-0.72-0.08-1.7-1.6-1.81-2.55
			C399.1,379.96,399.28,377.64,399.28,375.33z"/>
		<path class="st22" d="M427.98,372.44c0-1.43,0-2.35,0-3.28c0-0.93,0-1.86,0-3.33c2.6,0,4.99,0.08,7.37-0.02
			c2.43-0.1,3.42,0.97,3.44,3.37c0.02,2.44-1,3.43-3.44,3.29C433.07,372.34,430.78,372.44,427.98,372.44z"/>
		<path class="st23" d="M123.82,375.66c-0.02-1.9-0.04-3.79-0.06-5.69c17.69-0.78,30.33,8.57,42.25,20.69
			c-12.11,11.88-23.64,23.56-42.25,21.57c0,0,0.07,0.09,0.07,0.09c0.11-1.54,0.21-3.08,0.32-4.64c11.16,1.68,24.56-5.94,30.46-17.12
			C146.63,380.93,136.62,375.43,123.82,375.66z"/>
		<path class="st24" d="M123.77,423.7c0-1.92,0-3.85,0-5.78c9.16,1.74,17.86-0.24,25.81-4.47c7.35-3.91,14.12-8.94,21.81-13.9
			c3.09,1.77,7.02,4.01,11.74,6.71C164.46,417.93,145.03,423.87,123.77,423.7z"/>
		<path class="st25" d="M123.81,417.98c-14.35-2.37-22.46-11.9-27.78-24.47c-0.39-0.92,0.02-2.71,0.72-3.48
			c7.27-7.97,16.01-13.14,27.08-13.6c-0.01,1.93-0.01,3.85-0.02,5.78c0,0,0.07-0.07,0.07-0.07c-6.86,1.22-13.28,3.53-18.5,8.29
			c-1,0.91-1.83,3.19-1.39,4.29c3.65,9.1,9.69,15.72,19.84,17.61c0,0-0.07-0.09-0.07-0.09C123.79,414.15,123.8,416.07,123.81,417.98
			z"/>
		<path class="st26" d="M123.84,412.33c-10.14-1.89-16.18-8.51-19.84-17.61c-0.44-1.1,0.39-3.38,1.39-4.29
			c5.21-4.76,11.63-7.08,18.49-8.29c-0.01,1.93-0.01,3.86-0.02,5.78c-3.42,1.35-6.89,2.59-10.22,4.13c-0.67,0.31-1.24,1.8-1.14,2.65
			c0.54,4.36,6.64,10.67,11.27,11.72c0-6.23,0-12.41,0-18.58c6.77,0.09,9.44,5.36,12.48,10.48c3.11-2.66,5.91-5.05,8.72-7.44
			c-5.77-6.77-12.95-9-21.16-8.67c0.01-1.93,0.01-3.85,0.02-5.78c0-0.26-0.01-0.51-0.01-0.77c12.8-0.23,22.81,5.27,30.8,14.91
			c-5.9,11.18-19.3,18.8-30.46,17.12C124.05,409.25,123.95,410.79,123.84,412.33z"/>
		<path class="st20" d="M153.62,465.78c0-4.83,0-9.52,0-14.28c3.78-0.42,7.42-0.73,9.57,2.95c1.68,2.88,1.65,6.05-0.28,8.85
			C160.62,466.62,157.19,466.27,153.62,465.78z"/>
		<path class="st20" d="M196.71,462.26c1.27-3.52,2.48-6.89,3.7-10.26c0.3-0.09,0.61-0.17,0.91-0.26c1.27,3.37,2.54,6.74,3.96,10.52
			C202.33,462.26,199.75,462.26,196.71,462.26z"/>
		<path class="st27" d="M123.86,387.92c0.01-1.93,0.01-3.86,0.02-5.78c0,0-0.07,0.07-0.07,0.07c8.21-0.34,15.39,1.9,21.16,8.67
			c-2.81,2.4-5.6,4.78-8.72,7.44c-3.04-5.12-5.7-10.39-12.48-10.48L123.86,387.92z"/>
		<path class="st25" d="M123.78,387.84c0,6.18,0,12.35,0,18.58c-4.63-1.05-10.74-7.37-11.27-11.72c-0.11-0.85,0.47-2.34,1.14-2.65
			c3.33-1.54,6.8-2.78,10.22-4.13C123.86,387.92,123.78,387.84,123.78,387.84z"/>
	</g>
</g>
</svg>
